%FSLAX23Y23*%
%MOIN*%
G70*
G01*
G75*
%ADD10C,0.030*%
%ADD11C,0.020*%
%ADD12C,0.012*%
%ADD13C,0.010*%
%ADD14R,0.024X0.047*%
%ADD15R,0.039X0.051*%
%ADD16R,0.110X0.115*%
%ADD17R,0.098X0.091*%
%ADD18R,0.060X0.074*%
%ADD19R,0.080X0.080*%
%ADD20R,0.074X0.060*%
%ADD21R,0.051X0.039*%
%ADD22O,0.053X0.022*%
%ADD23O,0.022X0.053*%
%ADD24R,0.022X0.053*%
%ADD25R,0.026X0.079*%
%ADD26R,0.106X0.033*%
%ADD27R,0.110X0.070*%
%ADD28R,0.050X0.050*%
%ADD29R,0.050X0.050*%
%ADD30R,0.100X0.060*%
%ADD31C,0.015*%
%ADD32C,0.008*%
%ADD33C,0.157*%
%ADD34C,0.100*%
%ADD35P,0.108X8X112.5*%
%ADD36C,0.060*%
%ADD37C,0.089*%
%ADD38P,0.076X8X202.5*%
%ADD39R,0.062X0.070*%
%ADD40O,0.062X0.070*%
%ADD41C,0.079*%
%ADD42C,0.050*%
%ADD43C,0.006*%
%ADD44C,0.008*%
%ADD45C,0.004*%
%ADD46C,0.025*%
%ADD47C,0.024*%
%ADD48C,0.010*%
%ADD49C,0.016*%
%ADD50C,0.012*%
%ADD51C,0.006*%
%ADD52C,0.002*%
%ADD53R,0.098X0.051*%
%ADD54R,0.038X0.061*%
%ADD55R,0.053X0.065*%
%ADD56R,0.124X0.129*%
%ADD57R,0.112X0.105*%
%ADD58R,0.074X0.088*%
%ADD59R,0.094X0.094*%
%ADD60R,0.088X0.074*%
%ADD61R,0.065X0.053*%
%ADD62O,0.067X0.036*%
%ADD63O,0.036X0.067*%
%ADD64R,0.036X0.067*%
%ADD65R,0.040X0.093*%
%ADD66R,0.124X0.084*%
%ADD67R,0.064X0.064*%
%ADD68R,0.064X0.064*%
%ADD69R,0.114X0.074*%
%ADD70C,0.171*%
%ADD71C,0.014*%
%ADD72C,0.114*%
%ADD73P,0.123X8X112.5*%
%ADD74C,0.074*%
%ADD75P,0.091X8X202.5*%
%ADD76C,0.093*%
%ADD77C,0.064*%
%ADD78C,0.103*%
%ADD79R,0.076X0.084*%
%ADD80O,0.076X0.084*%
%ADD81C,0.007*%
D52*
X866Y568D02*
X886D01*
X876Y558D02*
Y578D01*
X341Y724D02*
X360D01*
X350Y715D02*
Y734D01*
X341Y1079D02*
X360D01*
X350Y1069D02*
Y1089D01*
X1391Y724D02*
X1411D01*
X1401Y715D02*
Y734D01*
X1391Y1079D02*
X1411D01*
X1401Y1069D02*
Y1089D01*
X1240Y100D02*
X1260D01*
X1250Y90D02*
Y110D01*
X1440Y100D02*
X1460D01*
X1450Y90D02*
Y110D01*
X1640Y100D02*
X1660D01*
X1650Y90D02*
Y110D01*
X1637Y1000D02*
X1657D01*
X1647Y990D02*
Y1010D01*
X94Y1000D02*
X114D01*
X104Y990D02*
Y1010D01*
X1145Y803D02*
X1165D01*
X1155Y793D02*
Y813D01*
X94Y803D02*
X114D01*
X104Y793D02*
Y813D01*
X65Y600D02*
X85D01*
X75Y590D02*
Y610D01*
X587Y803D02*
X606D01*
X596Y793D02*
Y813D01*
X587Y1000D02*
X606D01*
X596Y990D02*
Y1010D01*
X1145Y1000D02*
X1165D01*
X1155Y990D02*
Y1010D01*
X1637Y803D02*
X1657D01*
X1647Y793D02*
Y813D01*
X65Y75D02*
X85D01*
X75Y65D02*
Y85D01*
X1579Y2154D02*
X1598D01*
X1589Y2144D02*
Y2163D01*
X154Y2154D02*
X173D01*
X163Y2144D02*
Y2163D01*
X453Y2093D02*
X472D01*
X463Y2083D02*
Y2103D01*
X1280Y2093D02*
X1299D01*
X1289Y2083D02*
Y2103D01*
X1280Y1227D02*
X1299D01*
X1289Y1217D02*
Y1237D01*
X453Y1227D02*
X472D01*
X463Y1217D02*
Y1237D01*
X215Y1550D02*
X235D01*
X225Y1540D02*
Y1560D01*
X115Y1550D02*
X135D01*
X125Y1540D02*
Y1560D01*
X215Y1650D02*
X235D01*
X225Y1640D02*
Y1660D01*
X115Y1650D02*
X135D01*
X125Y1640D02*
Y1660D01*
X115Y1750D02*
X135D01*
X125Y1740D02*
Y1760D01*
X215Y1750D02*
X235D01*
X225Y1740D02*
Y1760D01*
X716Y2115D02*
X736D01*
X726Y2105D02*
Y2125D01*
X816Y2115D02*
X836D01*
X826Y2105D02*
Y2125D01*
X916Y2115D02*
X936D01*
X926Y2105D02*
Y2125D01*
X1016Y2115D02*
X1036D01*
X1026Y2105D02*
Y2125D01*
X1740Y1300D02*
X1760D01*
X1750Y1290D02*
Y1310D01*
X-10Y1300D02*
X10D01*
X0Y1290D02*
Y1310D01*
X1560Y1760D02*
X1580D01*
X1570Y1750D02*
Y1770D01*
X865Y1625D02*
X885D01*
X875Y1615D02*
Y1635D01*
X840Y1750D02*
X860D01*
X850Y1740D02*
Y1760D01*
X265Y100D02*
X285D01*
X275Y90D02*
Y110D01*
X340Y900D02*
X360D01*
X350Y890D02*
Y910D01*
X1040Y1500D02*
X1060D01*
X1050Y1490D02*
Y1510D01*
X665Y1050D02*
X685D01*
X675Y1040D02*
Y1060D01*
X965Y800D02*
X985D01*
X975Y790D02*
Y810D01*
X1365Y225D02*
X1385D01*
X1375Y215D02*
Y235D01*
X715Y275D02*
X735D01*
X725Y265D02*
Y285D01*
X590Y1375D02*
X610D01*
X600Y1365D02*
Y1385D01*
X840Y1825D02*
X860D01*
X850Y1815D02*
Y1835D01*
X340Y1325D02*
X360D01*
X350Y1315D02*
Y1335D01*
X280Y490D02*
X300D01*
X290Y480D02*
Y500D01*
M02*
