%FSLAX23Y23*%
%MOIN*%
G70*
G01*
G75*
G04 Layer_Color=65535*
%ADD10C,0.030*%
%ADD11C,0.020*%
%ADD12C,0.012*%
%ADD13C,0.010*%
%ADD14R,0.024X0.047*%
%ADD15R,0.039X0.051*%
%ADD16R,0.110X0.115*%
%ADD17R,0.098X0.091*%
%ADD18R,0.060X0.074*%
%ADD19R,0.080X0.080*%
%ADD20R,0.074X0.060*%
%ADD21R,0.051X0.039*%
%ADD22O,0.053X0.022*%
%ADD23O,0.022X0.053*%
%ADD24R,0.022X0.053*%
%ADD25R,0.026X0.079*%
%ADD26R,0.106X0.033*%
%ADD27R,0.110X0.070*%
%ADD28R,0.050X0.050*%
%ADD29R,0.050X0.050*%
%ADD30R,0.100X0.060*%
%ADD31C,0.015*%
%ADD32C,0.008*%
%ADD33C,0.157*%
%ADD34C,0.100*%
%ADD35P,0.108X8X112.5*%
%ADD36C,0.060*%
%ADD37C,0.089*%
%ADD38P,0.076X8X202.5*%
%ADD39R,0.062X0.070*%
%ADD40O,0.062X0.070*%
%ADD41C,0.079*%
%ADD42C,0.050*%
%ADD43C,0.006*%
%ADD44C,0.008*%
%ADD45C,0.004*%
%ADD46C,0.025*%
%ADD47C,0.024*%
%ADD48C,0.010*%
%ADD49C,0.016*%
%ADD50C,0.012*%
%ADD51C,0.006*%
%ADD52C,0.002*%
%ADD53R,0.098X0.051*%
D11*
X1375Y560D02*
Y620D01*
X1625Y170D02*
Y230D01*
X1245Y425D02*
X1305D01*
X670Y525D02*
X730D01*
X245Y1150D02*
X305D01*
X1641Y662D02*
Y742D01*
Y862D02*
Y942D01*
Y1062D02*
Y1142D01*
X1161D02*
X1641D01*
X1161Y1062D02*
Y1142D01*
Y857D02*
Y942D01*
Y662D02*
Y742D01*
Y662D02*
X1641D01*
X110Y1142D02*
X590D01*
Y1062D02*
Y1142D01*
Y862D02*
Y947D01*
Y662D02*
Y742D01*
X110Y662D02*
X590D01*
X110D02*
Y742D01*
Y862D02*
Y942D01*
Y1062D02*
Y1142D01*
D12*
X340Y1415D02*
X370D01*
Y1485D01*
X340D02*
X370D01*
X290Y425D02*
Y455D01*
X360D01*
Y425D02*
Y455D01*
X240Y145D02*
Y175D01*
Y145D02*
X310D01*
Y175D01*
X650Y2075D02*
X680D01*
Y2005D02*
Y2075D01*
X650Y2005D02*
X680D01*
X420Y1385D02*
X450D01*
X420Y1315D02*
Y1385D01*
Y1315D02*
X450D01*
X1190Y635D02*
X1220D01*
Y565D02*
Y635D01*
X1190Y565D02*
X1220D01*
X1410Y375D02*
Y405D01*
X1340D02*
X1410D01*
X1340Y375D02*
Y405D01*
X710Y1245D02*
Y1275D01*
X640Y1245D02*
X710D01*
X640D02*
Y1275D01*
X530Y2160D02*
X560D01*
X530Y2090D02*
Y2160D01*
Y2090D02*
X560D01*
X225Y1885D02*
X255D01*
Y1815D02*
Y1885D01*
X225Y1815D02*
X255D01*
X730Y5D02*
X870D01*
X730Y240D02*
X870D01*
Y5D02*
Y80D01*
X730Y5D02*
Y80D01*
Y165D02*
Y240D01*
X870Y165D02*
Y240D01*
X730Y165D02*
Y240D01*
X590Y165D02*
Y240D01*
Y5D02*
Y80D01*
X730Y5D02*
Y80D01*
X590Y240D02*
X730D01*
X590Y5D02*
X730D01*
X790Y1560D02*
Y1520D01*
X810Y1500D01*
X830Y1520D01*
Y1560D01*
X850Y1500D02*
X870D01*
X860D01*
Y1560D01*
X850Y1550D01*
X900Y1500D02*
Y1510D01*
X910D01*
Y1500D01*
X900D01*
X950Y1550D02*
X960Y1560D01*
X980D01*
X990Y1550D01*
Y1510D01*
X980Y1500D01*
X960D01*
X950Y1510D01*
Y1550D01*
X560Y1480D02*
X520D01*
Y1420D01*
X560D01*
X520Y1450D02*
X540D01*
X580Y1420D02*
Y1480D01*
X610D01*
X620Y1470D01*
Y1450D01*
X610Y1440D01*
X580D01*
X680Y1470D02*
X670Y1480D01*
X650D01*
X640Y1470D01*
Y1430D01*
X650Y1420D01*
X670D01*
X680Y1430D01*
X700Y1480D02*
X720D01*
X710D01*
Y1420D01*
X700D01*
X720D01*
X750Y1450D02*
X790D01*
X810Y1470D02*
X820Y1480D01*
X840D01*
X850Y1470D01*
Y1430D01*
X840Y1420D01*
X820D01*
X810Y1430D01*
Y1470D01*
X870Y1420D02*
X890D01*
X880D01*
Y1480D01*
X870Y1470D01*
X920D02*
X930Y1480D01*
X950D01*
X960Y1470D01*
Y1430D01*
X950Y1420D01*
X930D01*
X920Y1430D01*
Y1470D01*
X1020Y1480D02*
X1000Y1470D01*
X980Y1450D01*
Y1430D01*
X990Y1420D01*
X1010D01*
X1020Y1430D01*
Y1440D01*
X1010Y1450D01*
X980D01*
D13*
X225Y340D02*
G03*
X225Y290I0J-25D01*
G01*
X237Y425D02*
G03*
X237Y425I-5J0D01*
G01*
X1441Y902D02*
G03*
X1441Y902I-40J0D01*
G01*
X390D02*
G03*
X390Y902I-40J0D01*
G01*
X1013Y568D02*
G03*
X1013Y568I-137J0D01*
G01*
X1075Y1375D02*
X1125Y1325D01*
X1075Y1275D02*
X1125Y1325D01*
X1075Y1275D02*
Y1375D01*
X1125Y1275D02*
Y1375D01*
X958Y1400D02*
X1197D01*
X958Y1250D02*
Y1400D01*
Y1250D02*
X1226D01*
X225Y340D02*
Y365D01*
Y265D02*
Y290D01*
X25Y265D02*
X225D01*
X25D02*
Y365D01*
X225D01*
X900Y175D02*
X1000D01*
X950D02*
X1000Y125D01*
X900D02*
X950Y175D01*
X900Y125D02*
X1000D01*
X875Y300D02*
X1025D01*
X875Y0D02*
Y300D01*
Y0D02*
X1025D01*
Y300D01*
X1163Y235D02*
Y260D01*
X1088D02*
X1163D01*
X1088Y110D02*
X1163D01*
Y135D01*
X535Y287D02*
X560D01*
Y362D01*
X410Y287D02*
Y362D01*
Y287D02*
X435D01*
X160Y512D02*
X185D01*
X160D02*
Y587D01*
X310Y512D02*
Y587D01*
X285Y512D02*
X310D01*
X1088Y935D02*
Y960D01*
X1013D02*
X1088D01*
X1013Y810D02*
X1088D01*
Y835D01*
D32*
X945Y1090D02*
X1095D01*
X945D02*
Y1160D01*
X1095Y1090D02*
Y1160D01*
X945D02*
X1095D01*
X1475Y560D02*
Y620D01*
Y590D02*
X1505Y620D01*
X1475Y590D02*
X1505Y560D01*
Y620D01*
X1600Y540D02*
Y640D01*
X1465Y540D02*
X1600D01*
X1465Y640D02*
X1600D01*
X1445Y1535D02*
X1620D01*
X1445Y1635D02*
X1620D01*
Y1535D02*
Y1635D01*
X1400Y150D02*
X1535D01*
X1400Y250D02*
X1535D01*
X1400Y150D02*
Y250D01*
X1495Y170D02*
Y230D01*
X1525Y200D01*
X1495Y170D02*
X1525Y200D01*
Y170D02*
Y230D01*
X1325Y200D02*
Y335D01*
X1225Y200D02*
Y335D01*
Y200D02*
X1325D01*
X1245Y295D02*
X1305D01*
X1245D02*
X1275Y325D01*
X1305Y295D01*
X1245Y325D02*
X1305D01*
X750Y300D02*
Y435D01*
X650Y300D02*
Y435D01*
Y300D02*
X750D01*
X670Y395D02*
X730D01*
X670D02*
X700Y425D01*
X730Y395D01*
X670Y425D02*
X730D01*
X225Y1240D02*
Y1375D01*
X325Y1240D02*
Y1375D01*
X225D02*
X325D01*
X245Y1280D02*
X305D01*
X275Y1250D02*
X305Y1280D01*
X245D02*
X275Y1250D01*
X245D02*
X305D01*
X755Y305D02*
X905D01*
X755D02*
Y375D01*
X905Y305D02*
Y375D01*
X755D02*
X905D01*
X220Y1415D02*
Y1485D01*
Y1415D02*
X340D01*
X220Y1485D02*
X340D01*
X385Y20D02*
Y170D01*
X315Y20D02*
X385D01*
X315Y170D02*
X385D01*
X315Y20D02*
Y170D01*
X782Y1772D02*
X799D01*
X559Y1501D02*
Y1518D01*
X351Y1804D02*
X368D01*
X290Y305D02*
Y425D01*
X360Y305D02*
Y425D01*
X290Y305D02*
X360D01*
X480Y585D02*
X630D01*
Y515D02*
Y585D01*
X480Y515D02*
Y585D01*
Y515D02*
X630D01*
X240Y295D02*
X310D01*
X240Y175D02*
Y295D01*
X310Y175D02*
Y295D01*
X320Y635D02*
X470D01*
Y565D02*
Y635D01*
X320Y565D02*
Y635D01*
Y565D02*
X470D01*
X530Y2075D02*
X650D01*
X530Y2005D02*
X650D01*
X530D02*
Y2075D01*
X570Y1315D02*
Y1385D01*
X450D02*
X570D01*
X450Y1315D02*
X570D01*
X1070Y635D02*
X1190D01*
X1070Y565D02*
X1190D01*
X1070D02*
Y635D01*
X1340Y255D02*
X1410D01*
Y375D01*
X1340Y255D02*
Y375D01*
X710Y1275D02*
Y1395D01*
X640Y1275D02*
Y1395D01*
X710D01*
X680Y2090D02*
Y2160D01*
X560D02*
X680D01*
X560Y2090D02*
X680D01*
X105Y1885D02*
X225D01*
X105Y1815D02*
X225D01*
X105D02*
Y1885D01*
X1070Y340D02*
X1220D01*
X1070D02*
Y410D01*
X1220Y340D02*
Y410D01*
X1070D02*
X1220D01*
X1070Y485D02*
X1220D01*
Y415D02*
Y485D01*
X1070Y415D02*
Y485D01*
Y415D02*
X1220D01*
X1070Y490D02*
X1220D01*
X1070D02*
Y560D01*
X1220Y490D02*
Y560D01*
X1070D02*
X1220D01*
X965Y305D02*
Y455D01*
X1035D01*
X965Y305D02*
X1035D01*
Y455D01*
X1640Y255D02*
Y405D01*
X1710D01*
X1640Y255D02*
X1710D01*
Y405D01*
X1635Y255D02*
Y405D01*
X1565Y255D02*
X1635D01*
X1565Y405D02*
X1635D01*
X1565Y255D02*
Y405D01*
X1560Y255D02*
Y405D01*
X1490Y255D02*
X1560D01*
X1490Y405D02*
X1560D01*
X1490Y255D02*
Y405D01*
X1485Y255D02*
Y405D01*
X1415Y255D02*
X1485D01*
X1415Y405D02*
X1485D01*
X1415Y255D02*
Y405D01*
X1420Y1290D02*
X1570D01*
X1420D02*
Y1360D01*
X1570Y1290D02*
Y1360D01*
X1420D02*
X1570D01*
X1420Y1285D02*
X1570D01*
Y1215D02*
Y1285D01*
X1420Y1215D02*
Y1285D01*
Y1215D02*
X1570D01*
X560Y20D02*
Y170D01*
X490Y20D02*
X560D01*
X490Y170D02*
X560D01*
X490Y20D02*
Y170D01*
X945Y1085D02*
X1095D01*
Y1015D02*
Y1085D01*
X945Y1015D02*
Y1085D01*
Y1015D02*
X1095D01*
X485Y20D02*
Y170D01*
X415Y20D02*
X485D01*
X415Y170D02*
X485D01*
X415Y20D02*
Y170D01*
X105Y1890D02*
X255D01*
X105D02*
Y1960D01*
X255Y1890D02*
Y1960D01*
X105D02*
X255D01*
X320Y535D02*
X470D01*
Y465D02*
Y535D01*
X320Y465D02*
Y535D01*
Y465D02*
X470D01*
X480Y510D02*
X630D01*
Y440D02*
Y510D01*
X480Y440D02*
Y510D01*
Y440D02*
X630D01*
X1420Y1365D02*
X1570D01*
X1420D02*
Y1435D01*
X1570Y1365D02*
Y1435D01*
X1420D02*
X1570D01*
X1445D02*
X1620D01*
X1445Y1535D02*
X1620D01*
Y1435D02*
Y1535D01*
Y1885D02*
Y1985D01*
X1445D02*
X1620D01*
X1445Y1885D02*
X1620D01*
X1445Y1985D02*
X1620D01*
X1445Y2085D02*
X1620D01*
Y1985D02*
Y2085D01*
X586Y1983D02*
X579Y1990D01*
X566D01*
X559Y1983D01*
Y1957D01*
X566Y1950D01*
X579D01*
X586Y1957D01*
X599Y1983D02*
X606Y1990D01*
X619D01*
X626Y1983D01*
Y1977D01*
X619Y1970D01*
X613D01*
X619D01*
X626Y1963D01*
Y1957D01*
X619Y1950D01*
X606D01*
X599Y1957D01*
X600Y600D02*
Y640D01*
X620D01*
X627Y633D01*
Y620D01*
X620Y613D01*
X600D01*
X613D02*
X627Y600D01*
X640Y640D02*
X667D01*
Y633D01*
X640Y607D01*
Y600D01*
X1667Y897D02*
X1660Y890D01*
Y877D01*
X1667Y870D01*
X1673D01*
X1680Y877D01*
Y890D01*
X1687Y897D01*
X1693D01*
X1700Y890D01*
Y877D01*
X1693Y870D01*
X1700Y930D02*
X1660D01*
X1680Y910D01*
Y937D01*
X42Y902D02*
X35Y895D01*
Y882D01*
X42Y875D01*
X48D01*
X55Y882D01*
Y895D01*
X62Y902D01*
X68D01*
X75Y895D01*
Y882D01*
X68Y875D01*
X42Y915D02*
X35Y922D01*
Y935D01*
X42Y942D01*
X48D01*
X55Y935D01*
Y928D01*
Y935D01*
X62Y942D01*
X68D01*
X75Y935D01*
Y922D01*
X68Y915D01*
X207Y143D02*
X200Y150D01*
X187D01*
X180Y143D01*
Y117D01*
X187Y110D01*
X200D01*
X207Y117D01*
X220Y110D02*
X233D01*
X227D01*
Y150D01*
X220Y143D01*
X1300Y1380D02*
Y1420D01*
X1320D01*
X1327Y1413D01*
Y1400D01*
X1320Y1393D01*
X1300D01*
X1313D02*
X1327Y1380D01*
X1340Y1413D02*
X1347Y1420D01*
X1360D01*
X1367Y1413D01*
Y1407D01*
X1360Y1400D01*
X1353D01*
X1360D01*
X1367Y1393D01*
Y1387D01*
X1360Y1380D01*
X1347D01*
X1340Y1387D01*
X370Y180D02*
X330D01*
Y200D01*
X337Y207D01*
X350D01*
X357Y200D01*
Y180D01*
Y193D02*
X370Y207D01*
X330Y247D02*
Y220D01*
X350D01*
X343Y233D01*
Y240D01*
X350Y247D01*
X363D01*
X370Y240D01*
Y227D01*
X363Y220D01*
X602Y332D02*
Y358D01*
X595Y365D01*
X582D01*
X575Y358D01*
Y332D01*
X582Y325D01*
X595D01*
X588Y338D02*
X602Y325D01*
X595D02*
X602Y332D01*
X615Y325D02*
X628D01*
X622D01*
Y365D01*
X615Y358D01*
X170Y1170D02*
X210D01*
Y1190D01*
X203Y1197D01*
X177D01*
X170Y1190D01*
Y1170D01*
X177Y1210D02*
X170Y1217D01*
Y1230D01*
X177Y1237D01*
X183D01*
X190Y1230D01*
Y1223D01*
Y1230D01*
X197Y1237D01*
X203D01*
X210Y1230D01*
Y1217D01*
X203Y1210D01*
X560Y400D02*
Y440D01*
X580D01*
X587Y433D01*
Y420D01*
X580Y413D01*
X560D01*
X573D02*
X587Y400D01*
X600Y407D02*
X607Y400D01*
X620D01*
X627Y407D01*
Y433D01*
X620Y440D01*
X607D01*
X600Y433D01*
Y427D01*
X607Y420D01*
X627D01*
X230Y410D02*
Y377D01*
X237Y370D01*
X250D01*
X257Y377D01*
Y410D01*
X270Y370D02*
X283D01*
X277D01*
Y410D01*
X270Y403D01*
X352Y293D02*
X345Y300D01*
X332D01*
X325Y293D01*
Y267D01*
X332Y260D01*
X345D01*
X352Y267D01*
X392Y260D02*
X365D01*
X392Y287D01*
Y293D01*
X385Y300D01*
X372D01*
X365Y293D01*
X107Y497D02*
Y523D01*
X100Y530D01*
X87D01*
X80Y523D01*
Y497D01*
X87Y490D01*
X100D01*
X93Y503D02*
X107Y490D01*
X100D02*
X107Y497D01*
X147Y490D02*
X120D01*
X147Y517D01*
Y523D01*
X140Y530D01*
X127D01*
X120Y523D01*
X390Y410D02*
Y450D01*
X410D01*
X417Y443D01*
Y430D01*
X410Y423D01*
X390D01*
X403D02*
X417Y410D01*
X450D02*
Y450D01*
X430Y430D01*
X457D01*
X480Y600D02*
Y640D01*
X500D01*
X507Y633D01*
Y620D01*
X500Y613D01*
X480D01*
X493D02*
X507Y600D01*
X520D02*
X533D01*
X527D01*
Y640D01*
X520Y633D01*
X553D02*
X560Y640D01*
X573D01*
X580Y633D01*
Y607D01*
X573Y600D01*
X560D01*
X553Y607D01*
Y633D01*
X275Y1900D02*
Y1940D01*
X295D01*
X302Y1933D01*
Y1920D01*
X295Y1913D01*
X275D01*
X288D02*
X302Y1900D01*
X315D02*
X328D01*
X322D01*
Y1940D01*
X315Y1933D01*
X348Y1900D02*
X362D01*
X355D01*
Y1940D01*
X348Y1933D01*
X400Y180D02*
Y220D01*
X420D01*
X427Y213D01*
Y200D01*
X420Y193D01*
X400D01*
X413D02*
X427Y180D01*
X440D02*
X453D01*
X447D01*
Y220D01*
X440Y213D01*
X500Y180D02*
X473D01*
X500Y207D01*
Y213D01*
X493Y220D01*
X480D01*
X473Y213D01*
X825Y1025D02*
Y1065D01*
X845D01*
X852Y1058D01*
Y1045D01*
X845Y1038D01*
X825D01*
X838D02*
X852Y1025D01*
X865D02*
X878D01*
X872D01*
Y1065D01*
X865Y1058D01*
X898D02*
X905Y1065D01*
X918D01*
X925Y1058D01*
Y1052D01*
X918Y1045D01*
X912D01*
X918D01*
X925Y1038D01*
Y1032D01*
X918Y1025D01*
X905D01*
X898Y1032D01*
X700Y2220D02*
Y2180D01*
X720D01*
X727Y2187D01*
Y2213D01*
X720Y2220D01*
X700D01*
X740Y2180D02*
X753D01*
X747D01*
Y2207D01*
X740D01*
X773Y2180D02*
X793D01*
X800Y2187D01*
X793Y2193D01*
X780D01*
X773Y2200D01*
X780Y2207D01*
X800D01*
X813Y2167D02*
Y2207D01*
X833D01*
X840Y2200D01*
Y2187D01*
X833Y2180D01*
X813D01*
X853D02*
X867D01*
X860D01*
Y2220D01*
X853Y2213D01*
X302Y1858D02*
X295Y1865D01*
X282D01*
X275Y1858D01*
Y1832D01*
X282Y1825D01*
X295D01*
X302Y1832D01*
X335Y1825D02*
Y1865D01*
X315Y1845D01*
X342D01*
X560Y180D02*
X520D01*
Y200D01*
X527Y207D01*
X540D01*
X547Y200D01*
Y180D01*
Y193D02*
X560Y207D01*
X520Y247D02*
X527Y233D01*
X540Y220D01*
X553D01*
X560Y227D01*
Y240D01*
X553Y247D01*
X547D01*
X540Y240D01*
Y220D01*
X750Y1915D02*
Y1882D01*
X757Y1875D01*
X770D01*
X777Y1882D01*
Y1915D01*
X817Y1875D02*
X790D01*
X817Y1902D01*
Y1908D01*
X810Y1915D01*
X797D01*
X790Y1908D01*
X1657Y2043D02*
X1650Y2050D01*
X1637D01*
X1630Y2043D01*
Y2017D01*
X1637Y2010D01*
X1650D01*
X1657Y2017D01*
X1697Y2050D02*
X1670D01*
Y2030D01*
X1683Y2037D01*
X1690D01*
X1697Y2030D01*
Y2017D01*
X1690Y2010D01*
X1677D01*
X1670Y2017D01*
X1657Y1993D02*
X1650Y2000D01*
X1637D01*
X1630Y1993D01*
Y1967D01*
X1637Y1960D01*
X1650D01*
X1657Y1967D01*
X1697Y2000D02*
X1683Y1993D01*
X1670Y1980D01*
Y1967D01*
X1677Y1960D01*
X1690D01*
X1697Y1967D01*
Y1973D01*
X1690Y1980D01*
X1670D01*
X1657Y1533D02*
X1650Y1540D01*
X1637D01*
X1630Y1533D01*
Y1507D01*
X1637Y1500D01*
X1650D01*
X1657Y1507D01*
X1670Y1540D02*
X1697D01*
Y1533D01*
X1670Y1507D01*
Y1500D01*
X1657Y1583D02*
X1650Y1590D01*
X1637D01*
X1630Y1583D01*
Y1557D01*
X1637Y1550D01*
X1650D01*
X1657Y1557D01*
X1670Y1583D02*
X1677Y1590D01*
X1690D01*
X1697Y1583D01*
Y1577D01*
X1690Y1570D01*
X1697Y1563D01*
Y1557D01*
X1690Y1550D01*
X1677D01*
X1670Y1557D01*
Y1563D01*
X1677Y1570D01*
X1670Y1577D01*
Y1583D01*
X1677Y1570D02*
X1690D01*
X1275Y1740D02*
Y1700D01*
X1302D01*
X1315D02*
X1328D01*
X1322D01*
Y1740D01*
X1315Y1733D01*
X1300Y1490D02*
Y1450D01*
X1327D01*
X1367D02*
X1340D01*
X1367Y1477D01*
Y1483D01*
X1360Y1490D01*
X1347D01*
X1340Y1483D01*
X1470Y1160D02*
Y1200D01*
X1490D01*
X1497Y1193D01*
Y1180D01*
X1490Y1173D01*
X1470D01*
X1483D02*
X1497Y1160D01*
X1510D02*
X1523D01*
X1517D01*
Y1200D01*
X1510Y1193D01*
X1300Y1300D02*
Y1340D01*
X1320D01*
X1327Y1333D01*
Y1320D01*
X1320Y1313D01*
X1300D01*
X1313D02*
X1327Y1300D01*
X1367D02*
X1340D01*
X1367Y1327D01*
Y1333D01*
X1360Y1340D01*
X1347D01*
X1340Y1333D01*
X1570Y1715D02*
Y1682D01*
X1577Y1675D01*
X1590D01*
X1597Y1682D01*
Y1715D01*
X1610Y1708D02*
X1617Y1715D01*
X1630D01*
X1637Y1708D01*
Y1702D01*
X1630Y1695D01*
X1623D01*
X1630D01*
X1637Y1688D01*
Y1682D01*
X1630Y1675D01*
X1617D01*
X1610Y1682D01*
X1635Y215D02*
Y175D01*
X1655D01*
X1662Y182D01*
Y208D01*
X1655Y215D01*
X1635D01*
X1675D02*
X1702D01*
Y208D01*
X1675Y182D01*
Y175D01*
X1702D01*
X1715Y208D02*
X1722Y215D01*
X1735D01*
X1742Y208D01*
Y202D01*
X1735Y195D01*
X1728D01*
X1735D01*
X1742Y188D01*
Y182D01*
X1735Y175D01*
X1722D01*
X1715Y182D01*
X1580Y25D02*
Y52D01*
X1567Y38D02*
X1593D01*
X1560Y65D02*
X1587D01*
X1600Y78D01*
X1587Y92D01*
X1560D01*
X1500Y52D02*
Y25D01*
X1540D01*
Y52D01*
X1520Y25D02*
Y38D01*
X1540Y65D02*
X1513D01*
Y85D01*
X1520Y92D01*
X1540D01*
X1507Y112D02*
X1513D01*
Y105D01*
Y118D01*
Y112D01*
X1533D01*
X1540Y118D01*
X1317Y52D02*
X1310Y45D01*
Y32D01*
X1317Y25D01*
X1343D01*
X1350Y32D01*
Y45D01*
X1343Y52D01*
X1330D01*
Y38D01*
X1350Y65D02*
X1310D01*
X1350Y92D01*
X1310D01*
Y105D02*
X1350D01*
Y125D01*
X1343Y132D01*
X1317D01*
X1310Y125D01*
Y105D01*
X1047Y977D02*
Y1003D01*
X1040Y1010D01*
X1027D01*
X1020Y1003D01*
Y977D01*
X1027Y970D01*
X1040D01*
X1033Y983D02*
X1047Y970D01*
X1040D02*
X1047Y977D01*
X1060Y1003D02*
X1067Y1010D01*
X1080D01*
X1087Y1003D01*
Y997D01*
X1080Y990D01*
X1073D01*
X1080D01*
X1087Y983D01*
Y977D01*
X1080Y970D01*
X1067D01*
X1060Y977D01*
X1147Y67D02*
Y93D01*
X1140Y100D01*
X1127D01*
X1120Y93D01*
Y67D01*
X1127Y60D01*
X1140D01*
X1133Y73D02*
X1147Y60D01*
X1140D02*
X1147Y67D01*
X1180Y60D02*
Y100D01*
X1160Y80D01*
X1187D01*
X850Y1100D02*
Y1140D01*
X870D01*
X877Y1133D01*
Y1120D01*
X870Y1113D01*
X850D01*
X863D02*
X877Y1100D01*
X890Y1133D02*
X897Y1140D01*
X910D01*
X917Y1133D01*
Y1127D01*
X910Y1120D01*
X917Y1113D01*
Y1107D01*
X910Y1100D01*
X897D01*
X890Y1107D01*
Y1113D01*
X897Y1120D01*
X890Y1127D01*
Y1133D01*
X897Y1120D02*
X910D01*
X1475Y425D02*
X1435D01*
Y445D01*
X1442Y452D01*
X1455D01*
X1462Y445D01*
Y425D01*
Y438D02*
X1475Y452D01*
Y465D02*
Y478D01*
Y472D01*
X1435D01*
X1442Y465D01*
X1475Y518D02*
X1435D01*
X1455Y498D01*
Y525D01*
X1550Y425D02*
X1510D01*
Y445D01*
X1517Y452D01*
X1530D01*
X1537Y445D01*
Y425D01*
Y438D02*
X1550Y452D01*
Y465D02*
Y478D01*
Y472D01*
X1510D01*
X1517Y465D01*
X1510Y525D02*
Y498D01*
X1530D01*
X1523Y512D01*
Y518D01*
X1530Y525D01*
X1543D01*
X1550Y518D01*
Y505D01*
X1543Y498D01*
X770Y385D02*
Y425D01*
X790D01*
X797Y418D01*
Y405D01*
X790Y398D01*
X770D01*
X783D02*
X797Y385D01*
X810D02*
X823D01*
X817D01*
Y425D01*
X810Y418D01*
X870Y425D02*
X857Y418D01*
X843Y405D01*
Y392D01*
X850Y385D01*
X863D01*
X870Y392D01*
Y398D01*
X863Y405D01*
X843D01*
X590Y250D02*
Y290D01*
X610D01*
X617Y283D01*
Y270D01*
X610Y263D01*
X590D01*
X603D02*
X617Y250D01*
X630D02*
X643D01*
X637D01*
Y290D01*
X630Y283D01*
X663Y290D02*
X690D01*
Y283D01*
X663Y257D01*
Y250D01*
X760D02*
Y290D01*
X780D01*
X787Y283D01*
Y270D01*
X780Y263D01*
X760D01*
X773D02*
X787Y250D01*
X800D02*
X813D01*
X807D01*
Y290D01*
X800Y283D01*
X833D02*
X840Y290D01*
X853D01*
X860Y283D01*
Y277D01*
X853Y270D01*
X860Y263D01*
Y257D01*
X853Y250D01*
X840D01*
X833Y257D01*
Y263D01*
X840Y270D01*
X833Y277D01*
Y283D01*
X840Y270D02*
X853D01*
X900Y1300D02*
X940D01*
Y1320D01*
X933Y1327D01*
X907D01*
X900Y1320D01*
Y1300D01*
X940Y1340D02*
Y1353D01*
Y1347D01*
X900D01*
X907Y1340D01*
X1610Y610D02*
Y570D01*
X1630D01*
X1637Y577D01*
Y603D01*
X1630Y610D01*
X1610D01*
X1677Y570D02*
X1650D01*
X1677Y597D01*
Y603D01*
X1670Y610D01*
X1657D01*
X1650Y603D01*
X1040Y70D02*
Y30D01*
X1060D01*
X1067Y37D01*
Y63D01*
X1060Y70D01*
X1040D01*
X1100Y30D02*
Y70D01*
X1080Y50D01*
X1107D01*
X587Y2208D02*
X580Y2215D01*
X567D01*
X560Y2208D01*
Y2182D01*
X567Y2175D01*
X580D01*
X587Y2182D01*
X600D02*
X607Y2175D01*
X620D01*
X627Y2182D01*
Y2208D01*
X620Y2215D01*
X607D01*
X600Y2208D01*
Y2202D01*
X607Y2195D01*
X627D01*
X727Y1297D02*
X720Y1290D01*
Y1277D01*
X727Y1270D01*
X753D01*
X760Y1277D01*
Y1290D01*
X753Y1297D01*
X760Y1310D02*
Y1323D01*
Y1317D01*
X720D01*
X727Y1310D01*
Y1343D02*
X720Y1350D01*
Y1363D01*
X727Y1370D01*
X753D01*
X760Y1363D01*
Y1350D01*
X753Y1343D01*
X727D01*
X1367Y452D02*
X1360Y445D01*
Y432D01*
X1367Y425D01*
X1393D01*
X1400Y432D01*
Y445D01*
X1393Y452D01*
X1400Y465D02*
Y478D01*
Y472D01*
X1360D01*
X1367Y465D01*
X1400Y498D02*
Y512D01*
Y505D01*
X1360D01*
X1367Y498D01*
X1257Y618D02*
X1250Y625D01*
X1237D01*
X1230Y618D01*
Y592D01*
X1237Y585D01*
X1250D01*
X1257Y592D01*
X1270Y585D02*
X1283D01*
X1277D01*
Y625D01*
X1270Y618D01*
X1330Y585D02*
X1303D01*
X1330Y612D01*
Y618D01*
X1323Y625D01*
X1310D01*
X1303Y618D01*
X547Y1293D02*
X540Y1300D01*
X527D01*
X520Y1293D01*
Y1267D01*
X527Y1260D01*
X540D01*
X547Y1267D01*
X560Y1260D02*
X573D01*
X567D01*
Y1300D01*
X560Y1293D01*
X593D02*
X600Y1300D01*
X613D01*
X620Y1293D01*
Y1287D01*
X613Y1280D01*
X607D01*
X613D01*
X620Y1273D01*
Y1267D01*
X613Y1260D01*
X600D01*
X593Y1267D01*
X407Y1463D02*
X400Y1470D01*
X387D01*
X380Y1463D01*
Y1437D01*
X387Y1430D01*
X400D01*
X407Y1437D01*
X420Y1430D02*
X433D01*
X427D01*
Y1470D01*
X420Y1463D01*
X473Y1430D02*
Y1470D01*
X453Y1450D01*
X480D01*
X1250Y200D02*
Y160D01*
X1270D01*
X1277Y167D01*
Y193D01*
X1270Y200D01*
X1250D01*
X1290D02*
X1317D01*
Y193D01*
X1290Y167D01*
Y160D01*
X1317D01*
X1350D02*
Y200D01*
X1330Y180D01*
X1357D01*
X690Y540D02*
X730D01*
Y560D01*
X723Y567D01*
X697D01*
X690Y560D01*
Y540D01*
Y580D02*
Y607D01*
X697D01*
X723Y580D01*
X730D01*
Y607D01*
X690Y647D02*
Y620D01*
X710D01*
X703Y633D01*
Y640D01*
X710Y647D01*
X723D01*
X730Y640D01*
Y627D01*
X723Y620D01*
X1625Y425D02*
X1585D01*
Y445D01*
X1592Y452D01*
X1605D01*
X1612Y445D01*
Y425D01*
Y438D02*
X1625Y452D01*
Y465D02*
Y478D01*
Y472D01*
X1585D01*
X1592Y465D01*
X1618Y498D02*
X1625Y505D01*
Y518D01*
X1618Y525D01*
X1592D01*
X1585Y518D01*
Y505D01*
X1592Y498D01*
X1598D01*
X1605Y505D01*
Y525D01*
X1700Y425D02*
X1660D01*
Y445D01*
X1667Y452D01*
X1680D01*
X1687Y445D01*
Y425D01*
Y438D02*
X1700Y452D01*
Y492D02*
Y465D01*
X1673Y492D01*
X1667D01*
X1660Y485D01*
Y472D01*
X1667Y465D01*
Y505D02*
X1660Y512D01*
Y525D01*
X1667Y532D01*
X1693D01*
X1700Y525D01*
Y512D01*
X1693Y505D01*
X1667D01*
X960Y335D02*
X920D01*
Y355D01*
X927Y362D01*
X940D01*
X947Y355D01*
Y335D01*
Y348D02*
X960Y362D01*
Y402D02*
Y375D01*
X933Y402D01*
X927D01*
X920Y395D01*
Y382D01*
X927Y375D01*
X960Y415D02*
Y428D01*
Y422D01*
X920D01*
X927Y415D01*
X1230Y505D02*
Y545D01*
X1250D01*
X1257Y538D01*
Y525D01*
X1250Y518D01*
X1230D01*
X1243D02*
X1257Y505D01*
X1297D02*
X1270D01*
X1297Y532D01*
Y538D01*
X1290Y545D01*
X1277D01*
X1270Y538D01*
X1337Y505D02*
X1310D01*
X1337Y532D01*
Y538D01*
X1330Y545D01*
X1317D01*
X1310Y538D01*
X1230Y440D02*
Y480D01*
X1250D01*
X1257Y473D01*
Y460D01*
X1250Y453D01*
X1230D01*
X1243D02*
X1257Y440D01*
X1297D02*
X1270D01*
X1297Y467D01*
Y473D01*
X1290Y480D01*
X1277D01*
X1270Y473D01*
X1310D02*
X1317Y480D01*
X1330D01*
X1337Y473D01*
Y467D01*
X1330Y460D01*
X1323D01*
X1330D01*
X1337Y453D01*
Y447D01*
X1330Y440D01*
X1317D01*
X1310Y447D01*
X1100Y290D02*
Y330D01*
X1120D01*
X1127Y323D01*
Y310D01*
X1120Y303D01*
X1100D01*
X1113D02*
X1127Y290D01*
X1167D02*
X1140D01*
X1167Y317D01*
Y323D01*
X1160Y330D01*
X1147D01*
X1140Y323D01*
X1200Y290D02*
Y330D01*
X1180Y310D01*
X1207D01*
X620Y747D02*
Y727D01*
X627Y720D01*
X633Y727D01*
X640Y720D01*
X647Y727D01*
Y747D01*
X660D02*
Y727D01*
X667Y720D01*
X673Y727D01*
X680Y720D01*
X687Y727D01*
Y747D01*
X700D02*
Y727D01*
X707Y720D01*
X713Y727D01*
X720Y720D01*
X727Y727D01*
Y747D01*
X740Y720D02*
Y727D01*
X747D01*
Y720D01*
X740D01*
X773D02*
X787D01*
X780D01*
Y747D01*
X773D01*
X807Y720D02*
Y747D01*
X813D01*
X820Y740D01*
Y720D01*
Y740D01*
X827Y747D01*
X833Y740D01*
Y720D01*
X847Y747D02*
Y727D01*
X853Y720D01*
X860Y727D01*
X867Y720D01*
X873Y727D01*
Y747D01*
X887Y720D02*
X907D01*
X913Y727D01*
X907Y733D01*
X893D01*
X887Y740D01*
X893Y747D01*
X913D01*
X933D02*
X947D01*
X953Y740D01*
Y720D01*
X933D01*
X927Y727D01*
X933Y733D01*
X953D01*
X967Y720D02*
Y727D01*
X973D01*
Y720D01*
X967D01*
X1027Y747D02*
X1007D01*
X1000Y740D01*
Y727D01*
X1007Y720D01*
X1027D01*
X1047D02*
X1060D01*
X1067Y727D01*
Y740D01*
X1060Y747D01*
X1047D01*
X1040Y740D01*
Y727D01*
X1047Y720D01*
X1080D02*
Y747D01*
X1087D01*
X1093Y740D01*
Y720D01*
Y740D01*
X1100Y747D01*
X1107Y740D01*
Y720D01*
X695Y1989D02*
X678D01*
X670Y1981D01*
Y1948D01*
X678Y1940D01*
X695D01*
X703Y1948D01*
Y1981D01*
X695Y1989D01*
X719Y1940D02*
X736D01*
X727D01*
Y1989D01*
X719D01*
X785Y1940D02*
X768D01*
X760Y1948D01*
Y1965D01*
X768Y1973D01*
X785D01*
X793Y1965D01*
Y1956D01*
X760D01*
X842Y1989D02*
Y1940D01*
X818D01*
X809Y1948D01*
Y1965D01*
X818Y1973D01*
X842D01*
X908Y1981D02*
X916Y1989D01*
X932D01*
X941Y1981D01*
Y1948D01*
X932Y1940D01*
X916D01*
X908Y1948D01*
Y1981D01*
X965Y1932D02*
X973Y1940D01*
Y1948D01*
X965D01*
Y1940D01*
X973D01*
X965Y1932D01*
X957Y1924D01*
X1006Y1948D02*
X1014Y1940D01*
X1031D01*
X1039Y1948D01*
Y1981D01*
X1031Y1989D01*
X1014D01*
X1006Y1981D01*
Y1973D01*
X1014Y1965D01*
X1039D01*
X1088Y1989D02*
X1072Y1981D01*
X1055Y1965D01*
Y1948D01*
X1064Y1940D01*
X1080D01*
X1088Y1948D01*
Y1956D01*
X1080Y1965D01*
X1055D01*
X711Y2035D02*
X743D01*
X809D02*
X842D01*
X825Y2051D02*
Y2018D01*
X940Y2051D02*
X932Y2059D01*
X916D01*
X907Y2051D01*
Y2018D01*
X916Y2010D01*
X932D01*
X940Y2018D01*
X1006Y2059D02*
Y2010D01*
X1030D01*
X1039Y2018D01*
Y2051D01*
X1030Y2059D01*
X1006D01*
X150Y70D02*
X177D01*
X163Y83D02*
Y57D01*
X190Y90D02*
Y50D01*
X210D01*
X217Y57D01*
Y63D01*
X210Y70D01*
X190D01*
X210D01*
X217Y77D01*
Y83D01*
X210Y90D01*
X190D01*
X25Y695D02*
X52D01*
X65Y715D02*
Y675D01*
X85D01*
X92Y682D01*
Y688D01*
X85Y695D01*
X65D01*
X85D01*
X92Y702D01*
Y708D01*
X85Y715D01*
X65D01*
D43*
X1433Y1709D02*
G03*
X1433Y1709I-2J0D01*
G01*
D44*
X1264Y1570D02*
G03*
X1264Y1880I-64J155D01*
G01*
X1136D02*
G03*
X1136Y1570I64J-155D01*
G01*
X135Y75D02*
G03*
X135Y75I-60J0D01*
G01*
Y600D02*
G03*
X135Y600I-60J0D01*
G01*
X1699Y100D02*
G03*
X1699Y100I-49J0D01*
G01*
X1499D02*
G03*
X1499Y100I-49J0D01*
G01*
X1299D02*
G03*
X1299Y100I-49J0D01*
G01*
X374Y1404D02*
X1275D01*
X374Y1995D02*
X1125D01*
X1435Y1780D02*
X1545D01*
Y1740D02*
Y1780D01*
X1451Y1740D02*
X1545D01*
X1435Y1756D02*
Y1780D01*
Y1756D02*
X1451Y1740D01*
X1385Y1638D02*
Y1812D01*
X1015Y1638D02*
Y1812D01*
X1279Y1979D02*
X1385Y1812D01*
X1279Y1471D02*
X1385Y1638D01*
X1015Y1812D02*
X1121Y1979D01*
X1015Y1638D02*
X1121Y1471D01*
X1261Y1979D02*
X1279D01*
X1261Y1471D02*
X1279D01*
X1121Y1979D02*
X1139D01*
X1121Y1471D02*
X1139D01*
X374Y2172D02*
X1378D01*
Y1148D02*
Y2172D01*
X374Y1148D02*
Y2172D01*
X591Y1148D02*
Y1247D01*
X1161D01*
Y1148D02*
Y1247D01*
Y1148D02*
X1378D01*
X374D02*
X591D01*
X687Y1853D02*
X703Y1837D01*
X447Y1597D02*
Y1853D01*
X703Y1597D02*
Y1837D01*
X447Y1597D02*
X703D01*
X447Y1853D02*
X687D01*
D45*
X1652Y2154D02*
G03*
X1652Y2154I-63J0D01*
G01*
D46*
X315Y1550D02*
G03*
X315Y1550I-12J0D01*
G01*
D47*
X668Y1806D02*
G03*
X668Y1806I-12J0D01*
G01*
D48*
X718Y1902D02*
G03*
X718Y1902I-5J0D01*
G01*
D49*
X1197Y1250D02*
X1246D01*
Y1400D01*
X1197D02*
X1246D01*
X1375Y540D02*
Y560D01*
Y540D02*
X1465D01*
X1375Y640D02*
X1465D01*
X1375Y620D02*
Y640D01*
X1625Y150D02*
Y170D01*
X1535Y150D02*
X1625D01*
X1535Y250D02*
X1625D01*
Y230D02*
Y250D01*
X1305Y425D02*
X1325D01*
Y335D02*
Y425D01*
X1225Y335D02*
Y425D01*
X1245D01*
X730Y525D02*
X750D01*
Y435D02*
Y525D01*
X650Y435D02*
Y525D01*
X670D01*
X225Y1150D02*
X245D01*
X225D02*
Y1240D01*
X325Y1150D02*
Y1240D01*
X305Y1150D02*
X325D01*
X875Y300D02*
X1025D01*
Y210D02*
Y300D01*
X875Y210D02*
Y300D01*
D50*
X1395Y1635D02*
X1445D01*
X1395Y1535D02*
X1445D01*
X1395D02*
Y1635D01*
Y1535D02*
X1445D01*
X1395Y1435D02*
X1445D01*
X1395D02*
Y1535D01*
Y1885D02*
Y1985D01*
Y1885D02*
X1445D01*
X1395Y1985D02*
X1445D01*
X1395Y2085D02*
X1445D01*
X1395Y1985D02*
X1445D01*
X1395D02*
Y2085D01*
D51*
X250Y1510D02*
X265Y1525D01*
Y1575D01*
X250Y1590D02*
X265Y1575D01*
X200Y1590D02*
X250D01*
X185Y1575D02*
X200Y1590D01*
X185Y1525D02*
Y1575D01*
Y1525D02*
X200Y1510D01*
X250D01*
X150D02*
X165Y1525D01*
Y1575D01*
X150Y1590D02*
X165Y1575D01*
X100Y1590D02*
X150D01*
X85Y1575D02*
X100Y1590D01*
X85Y1525D02*
Y1575D01*
Y1525D02*
X100Y1510D01*
X150D01*
X250Y1610D02*
X265Y1625D01*
Y1675D01*
X250Y1690D02*
X265Y1675D01*
X200Y1690D02*
X250D01*
X185Y1675D02*
X200Y1690D01*
X185Y1625D02*
Y1675D01*
Y1625D02*
X200Y1610D01*
X250D01*
X150D02*
X165Y1625D01*
Y1675D01*
X150Y1690D02*
X165Y1675D01*
X100Y1690D02*
X150D01*
X85Y1675D02*
X100Y1690D01*
X85Y1625D02*
Y1675D01*
Y1625D02*
X100Y1610D01*
X150D01*
X250Y1710D02*
X265Y1725D01*
Y1775D01*
X250Y1790D02*
X265Y1775D01*
X200Y1790D02*
X250D01*
X185Y1775D02*
X200Y1790D01*
X185Y1725D02*
Y1775D01*
Y1725D02*
X200Y1710D01*
X250D01*
X150Y1710D02*
X165Y1725D01*
Y1775D01*
X150Y1790D02*
X165Y1775D01*
X100Y1790D02*
X150D01*
X85Y1775D02*
X100Y1790D01*
X85Y1725D02*
Y1775D01*
Y1725D02*
X100Y1710D01*
X150D01*
X41Y1542D02*
X75D01*
X58Y1525D02*
Y1559D01*
X35Y1568D02*
X54Y1564D01*
X50Y1568D01*
X48Y1574D01*
Y1580D01*
X50Y1585D01*
X54Y1589D01*
X60Y1591D01*
X64D01*
X69Y1589D01*
X73Y1585D01*
X75Y1580D01*
Y1574D01*
X73Y1568D01*
X71Y1566D01*
X67Y1564D01*
X65D01*
X64Y1566D01*
X65Y1568D01*
X67Y1566D01*
X48Y1580D02*
X50Y1583D01*
X54Y1587D01*
X60Y1589D01*
X64D01*
X69Y1587D01*
X73Y1583D01*
X75Y1580D01*
X35Y1568D02*
Y1587D01*
X37Y1568D02*
Y1578D01*
X35Y1587D01*
X41Y1727D02*
X46Y1729D01*
X35D01*
X41Y1727D01*
X37Y1723D01*
X35Y1717D01*
Y1713D01*
X37Y1708D01*
X41Y1704D01*
X45Y1702D01*
X50Y1700D01*
X60D01*
X65Y1702D01*
X69Y1704D01*
X73Y1708D01*
X75Y1713D01*
Y1717D01*
X73Y1723D01*
X69Y1727D01*
X35Y1713D02*
X37Y1710D01*
X41Y1706D01*
X45Y1704D01*
X50Y1702D01*
X60D01*
X65Y1704D01*
X69Y1706D01*
X73Y1710D01*
X75Y1713D01*
X60Y1727D02*
X75D01*
X60Y1729D02*
X75D01*
X60Y1721D02*
Y1734D01*
X35Y1745D02*
X75D01*
X35Y1747D02*
X71Y1770D01*
X39Y1747D02*
X75Y1770D01*
X35D02*
X75D01*
X35Y1739D02*
Y1747D01*
Y1764D02*
Y1776D01*
X75Y1739D02*
Y1751D01*
X35Y1786D02*
X75D01*
X35Y1788D02*
X75D01*
X35Y1781D02*
Y1800D01*
X37Y1805D01*
X41Y1809D01*
X45Y1811D01*
X50Y1813D01*
X60D01*
X65Y1811D01*
X69Y1809D01*
X73Y1805D01*
X75Y1800D01*
Y1781D01*
X35Y1800D02*
X37Y1803D01*
X41Y1807D01*
X45Y1809D01*
X50Y1811D01*
X60D01*
X65Y1809D01*
X69Y1807D01*
X73Y1803D01*
X75Y1800D01*
D52*
X670Y862D02*
X672D01*
X660D02*
X662D01*
X630D02*
X632D01*
X670Y864D02*
X672D01*
X660D02*
X662D01*
X630D02*
X632D01*
X670Y866D02*
X672D01*
X660D02*
X662D01*
X630D02*
X632D01*
X670Y868D02*
X672D01*
X660D02*
X662D01*
X630D02*
X632D01*
X670Y870D02*
X672D01*
X660D02*
X662D01*
X630D02*
X632D01*
X670Y872D02*
X672D01*
X660D02*
X662D01*
X630D02*
X632D01*
X670Y874D02*
X672D01*
X660D02*
X662D01*
X630D02*
X632D01*
X670Y876D02*
X672D01*
X660D02*
X662D01*
X630D02*
X632D01*
X670Y878D02*
X672D01*
X660D02*
X662D01*
X630D02*
X632D01*
X670Y880D02*
X672D01*
X660D02*
X662D01*
X630D02*
X632D01*
X670Y882D02*
X672D01*
X660D02*
X662D01*
X630D02*
X632D01*
X670Y884D02*
X672D01*
X660D02*
X662D01*
X630D02*
X632D01*
X670Y886D02*
X672D01*
X660D02*
X662D01*
X630D02*
X632D01*
X670Y888D02*
X672D01*
X660D02*
X662D01*
X630D02*
X632D01*
X670Y890D02*
X672D01*
X660D02*
X662D01*
X630D02*
X632D01*
X670Y892D02*
X672D01*
X660D02*
X662D01*
X630D02*
X632D01*
X670Y894D02*
X672D01*
X660D02*
X662D01*
X630D02*
X632D01*
X670Y896D02*
X672D01*
X660D02*
X662D01*
X630D02*
X632D01*
X670Y898D02*
X672D01*
X660D02*
X662D01*
X630D02*
X632D01*
X670Y900D02*
X672D01*
X660D02*
X662D01*
X630D02*
X632D01*
X670Y902D02*
X672D01*
X660D02*
X662D01*
X630D02*
X632D01*
X670Y904D02*
X672D01*
X660D02*
X662D01*
X630D02*
X632D01*
X670Y906D02*
X672D01*
X660D02*
X662D01*
X630D02*
X632D01*
X670Y908D02*
X672D01*
X660D02*
X662D01*
X630D02*
X632D01*
X670Y910D02*
X672D01*
X660D02*
X662D01*
X630D02*
X632D01*
X670Y912D02*
X672D01*
X660D02*
X662D01*
X630D02*
X632D01*
X670Y914D02*
X672D01*
X660D02*
X662D01*
X630D02*
X632D01*
X670Y916D02*
X672D01*
X660D02*
X662D01*
X630D02*
X632D01*
X670Y918D02*
X672D01*
X660D02*
X662D01*
X630D02*
X632D01*
X670Y920D02*
X672D01*
X660D02*
X662D01*
X630D02*
X632D01*
X670Y922D02*
X672D01*
X660D02*
X662D01*
X630D02*
X632D01*
X670Y924D02*
X672D01*
X660D02*
X662D01*
X630D02*
X632D01*
X670Y926D02*
X672D01*
X660D02*
X662D01*
X630D02*
X632D01*
X670Y928D02*
X672D01*
X660D02*
X662D01*
X630D02*
X632D01*
X670Y930D02*
X672D01*
X660D02*
X662D01*
X630D02*
X632D01*
X670Y932D02*
X672D01*
X660D02*
X662D01*
X630D02*
X632D01*
X670Y934D02*
X672D01*
X660D02*
X662D01*
X630D02*
X632D01*
X670Y936D02*
X672D01*
X660D02*
X662D01*
X630D02*
X632D01*
X670Y938D02*
X672D01*
X660D02*
X662D01*
X630D02*
X632D01*
X620Y946D02*
X622D01*
X614Y948D02*
X630D01*
X626Y950D02*
X644D01*
X622D02*
X624D01*
X656Y952D02*
X658D01*
X634D02*
X654D01*
X668Y954D02*
X672D01*
X644D02*
X666D01*
X652Y956D02*
X682D01*
X712Y862D02*
X738D01*
X696D02*
X698D01*
X752Y864D02*
X754D01*
X736D02*
X738D01*
X712D02*
X714D01*
X696D02*
X698D01*
X752Y866D02*
X756D01*
X738D02*
X740D01*
X710D02*
X714D01*
X696D02*
X698D01*
X752Y868D02*
X754D01*
X738D02*
X740D01*
X710D02*
X712D01*
X696D02*
X698D01*
X752Y870D02*
X756D01*
X738D02*
X740D01*
X710D02*
X712D01*
X696D02*
X698D01*
X752Y872D02*
X754D01*
X738D02*
X740D01*
X710D02*
X712D01*
X696D02*
X698D01*
X752Y874D02*
X756D01*
X740D02*
X742D01*
X708D02*
X712D01*
X696D02*
X698D01*
X752Y876D02*
X754D01*
X740D02*
X742D01*
X708D02*
X710D01*
X696D02*
X698D01*
X752Y878D02*
X756D01*
X740D02*
X742D01*
X708D02*
X710D01*
X696D02*
X698D01*
X752Y880D02*
X754D01*
X742D02*
X744D01*
X706D02*
X710D01*
X696D02*
X698D01*
X752Y882D02*
X756D01*
X742D02*
X744D01*
X706D02*
X708D01*
X696D02*
X698D01*
X752Y884D02*
X754D01*
X742D02*
X744D01*
X706D02*
X708D01*
X696D02*
X698D01*
X752Y886D02*
X756D01*
X742D02*
X744D01*
X706D02*
X708D01*
X696D02*
X698D01*
X752Y888D02*
X754D01*
X744D02*
X746D01*
X704D02*
X708D01*
X696D02*
X698D01*
X752Y890D02*
X756D01*
X744D02*
X746D01*
X704D02*
X706D01*
X696D02*
X698D01*
X752Y892D02*
X754D01*
X744D02*
X746D01*
X704D02*
X706D01*
X696D02*
X698D01*
X752Y894D02*
X756D01*
X746D02*
X748D01*
X702D02*
X706D01*
X696D02*
X698D01*
X752Y896D02*
X754D01*
X746D02*
X748D01*
X702D02*
X704D01*
X696D02*
X698D01*
X752Y898D02*
X756D01*
X746D02*
X748D01*
X728D02*
X730D01*
X702D02*
X706D01*
X696D02*
X698D01*
X752Y900D02*
X754D01*
X746D02*
X748D01*
X728D02*
X730D01*
X702D02*
X704D01*
X696D02*
X698D01*
X752Y902D02*
X756D01*
X748D02*
X750D01*
X728D02*
X730D01*
X700D02*
X704D01*
X696D02*
X698D01*
X752Y904D02*
X754D01*
X748D02*
X750D01*
X726D02*
X732D01*
X700D02*
X702D01*
X696D02*
X698D01*
X752Y906D02*
X756D01*
X748D02*
X750D01*
X726D02*
X732D01*
X700D02*
X704D01*
X696D02*
X698D01*
X750Y908D02*
X754D01*
X726D02*
X732D01*
X696D02*
X700D01*
X750Y910D02*
X756D01*
X728D02*
X732D01*
X724D02*
X726D01*
X696D02*
X702D01*
X750Y912D02*
X754D01*
X728D02*
X732D01*
X724D02*
X726D01*
X696D02*
X700D01*
X750Y914D02*
X756D01*
X728D02*
X734D01*
X724D02*
X726D01*
X696D02*
X702D01*
X752Y916D02*
X754D01*
X730D02*
X734D01*
X722D02*
X724D01*
X696D02*
X698D01*
X752Y918D02*
X754D01*
X732D02*
X734D01*
X722D02*
X724D01*
X696D02*
X700D01*
X732Y920D02*
X734D01*
X720D02*
X722D01*
X732Y922D02*
X734D01*
X720D02*
X722D01*
X732Y924D02*
X734D01*
X720D02*
X722D01*
X732Y926D02*
X736D01*
X718D02*
X720D01*
X734Y928D02*
X736D01*
X718D02*
X720D01*
X734Y930D02*
X736D01*
X718D02*
X720D01*
X734Y932D02*
X736D01*
X716D02*
X718D01*
X734Y934D02*
X736D01*
X716D02*
X718D01*
X734Y936D02*
X738D01*
X716D02*
X718D01*
X736Y938D02*
X738D01*
X714D02*
X716D01*
Y960D02*
X718D01*
X736Y962D02*
X738D01*
X696Y964D02*
X760D01*
X728Y970D02*
X730D01*
X798Y864D02*
X836D01*
X780D02*
X782D01*
X798Y866D02*
X836D01*
X780D02*
X782D01*
X796Y868D02*
X836D01*
X780D02*
X782D01*
X798Y870D02*
X838D01*
X780D02*
X782D01*
X796Y872D02*
X838D01*
X780D02*
X782D01*
X796Y874D02*
X838D01*
X780D02*
X782D01*
X794Y876D02*
X838D01*
X780D02*
X782D01*
X794Y878D02*
X838D01*
X780D02*
X782D01*
X794Y880D02*
X840D01*
X780D02*
X782D01*
X794Y882D02*
X840D01*
X780D02*
X782D01*
X792Y884D02*
X840D01*
X780D02*
X782D01*
X792Y886D02*
X840D01*
X780D02*
X782D01*
X792Y888D02*
X842D01*
X780D02*
X782D01*
X792Y890D02*
X842D01*
X780D02*
X782D01*
X790Y892D02*
X842D01*
X780D02*
X782D01*
X780Y894D02*
X782D01*
X780Y896D02*
X782D01*
X780Y898D02*
X782D01*
X780Y900D02*
X782D01*
X780Y902D02*
X782D01*
X780Y904D02*
X782D01*
X780Y906D02*
X782D01*
X780Y908D02*
X782D01*
X780Y910D02*
X782D01*
X786Y912D02*
X818D01*
X780D02*
X782D01*
X786Y914D02*
X818D01*
X780D02*
X782D01*
X784Y916D02*
X818D01*
X780D02*
X782D01*
X784Y918D02*
X818D01*
X780D02*
X782D01*
X784Y920D02*
X816D01*
X780D02*
X782D01*
X784Y922D02*
X816D01*
X780D02*
X782D01*
X780Y924D02*
X816D01*
X780Y926D02*
X816D01*
X824Y928D02*
X832D01*
X780D02*
X814D01*
X780Y930D02*
X814D01*
X842Y932D02*
X844D01*
X838D02*
X840D01*
X834D02*
X836D01*
X824D02*
X832D01*
X780D02*
X814D01*
X780Y934D02*
X814D01*
X840Y936D02*
X842D01*
X836D02*
X838D01*
X826D02*
X834D01*
X780D02*
X812D01*
X780Y938D02*
X812D01*
X806Y966D02*
X808D01*
X802D02*
X804D01*
X798D02*
X800D01*
X794D02*
X796D01*
X840Y968D02*
X842D01*
X836D02*
X838D01*
X800Y970D02*
X802D01*
X794D02*
X796D01*
X790D02*
X792D01*
X780D02*
X782D01*
X776D02*
X778D01*
X772D02*
X774D01*
X768D02*
X770D01*
X802Y972D02*
X804D01*
X796D02*
X798D01*
X790D02*
X792D01*
X782D02*
X788D01*
X778D02*
X780D01*
X800Y974D02*
X802D01*
X794D02*
X796D01*
X788D02*
X790D01*
X780D02*
X782D01*
X776D02*
X778D01*
X772D02*
X774D01*
X768D02*
X770D01*
X798Y976D02*
X800D01*
X792D02*
X794D01*
X788D02*
X790D01*
X782D02*
X786D01*
X780Y978D02*
X804D01*
Y980D02*
X828D01*
X886Y858D02*
X896D01*
X890Y862D02*
X900D01*
X892Y864D02*
X902D01*
X894Y866D02*
X904D01*
X850D02*
X888D01*
X894Y868D02*
X904D01*
X850D02*
X888D01*
X896Y870D02*
X906D01*
X850D02*
X888D01*
X896Y872D02*
X908D01*
X848D02*
X890D01*
X898Y874D02*
X910D01*
X848D02*
X890D01*
X900Y876D02*
X910D01*
X848D02*
X890D01*
X900Y878D02*
X914D01*
X848D02*
X890D01*
X902Y880D02*
X914D01*
X904Y882D02*
X916D01*
X904Y884D02*
X918D01*
X906Y886D02*
X920D01*
X906Y888D02*
X920D01*
X908Y890D02*
X922D01*
X908Y892D02*
X924D01*
X910Y894D02*
X924D01*
X864Y920D02*
X898D01*
X866Y922D02*
X898D01*
X866Y924D02*
X900D01*
X868Y926D02*
X900D01*
X868Y928D02*
X900D01*
X868Y930D02*
X900D01*
X870Y932D02*
X900D01*
X850D02*
X862D01*
X870Y934D02*
X902D01*
X860D02*
X862D01*
X856D02*
X858D01*
X852D02*
X854D01*
X870Y936D02*
X902D01*
X848D02*
X860D01*
X876Y938D02*
X902D01*
X882Y956D02*
X902D01*
X878Y958D02*
X898D01*
X896Y960D02*
X902D01*
X892D02*
X894D01*
X870D02*
X890D01*
X866D02*
X868D01*
X902Y962D02*
X906D01*
X898D02*
X900D01*
X894D02*
X896D01*
X890D02*
X892D01*
X886D02*
X888D01*
X858D02*
X884D01*
X854D02*
X856D01*
X900Y964D02*
X904D01*
X896D02*
X898D01*
X892D02*
X894D01*
X888D02*
X890D01*
X884D02*
X886D01*
X908Y966D02*
X910D01*
X904D02*
X906D01*
X900D02*
X902D01*
X896D02*
X898D01*
X892D02*
X894D01*
X888D02*
X890D01*
X882D02*
X884D01*
X878D02*
X880D01*
X862D02*
X864D01*
X902Y968D02*
X904D01*
X898D02*
X900D01*
X894D02*
X896D01*
X890D02*
X892D01*
X884D02*
X886D01*
X912Y970D02*
X914D01*
X908D02*
X910D01*
X904D02*
X906D01*
X900D02*
X902D01*
X896D02*
X898D01*
X892D02*
X894D01*
X888D02*
X890D01*
X910Y972D02*
X918D01*
X906D02*
X908D01*
X902D02*
X904D01*
X898D02*
X900D01*
X894D02*
X896D01*
X890D02*
X892D01*
X884D02*
X886D01*
X912Y974D02*
X914D01*
X908D02*
X910D01*
X904D02*
X906D01*
X900D02*
X902D01*
X896D02*
X898D01*
X888D02*
X890D01*
X918Y976D02*
X920D01*
X914D02*
X916D01*
X910D02*
X912D01*
X906D02*
X908D01*
X902D02*
X904D01*
X898D02*
X900D01*
X894D02*
X896D01*
X890D02*
X892D01*
X912Y978D02*
X914D01*
X908D02*
X910D01*
X904D02*
X906D01*
X900D02*
X902D01*
X914Y980D02*
X918D01*
X910D02*
X912D01*
X906D02*
X908D01*
X902D02*
X904D01*
X898D02*
X900D01*
X894D02*
X896D01*
X918Y982D02*
X922D01*
X914D02*
X916D01*
X910D02*
X912D01*
X906D02*
X908D01*
X902D02*
X904D01*
X916Y984D02*
X920D01*
X912D02*
X914D01*
X908D02*
X910D01*
X904D02*
X906D01*
X898D02*
X900D01*
X852D02*
X876D01*
X920Y986D02*
X924D01*
X916D02*
X918D01*
X912D02*
X914D01*
X908D02*
X910D01*
X902D02*
X904D01*
X876D02*
X900D01*
X898Y988D02*
X914D01*
X630Y860D02*
X662D01*
X630Y940D02*
X662D01*
X888Y860D02*
X898D01*
X752D02*
X782D01*
X822Y920D02*
X862D01*
X822Y922D02*
X864D01*
X822Y924D02*
X864D01*
X824Y926D02*
X864D01*
X834Y928D02*
X862D01*
X824Y930D02*
X862D01*
X846Y932D02*
X848D01*
X826Y934D02*
X850D01*
X844Y936D02*
X846D01*
X830Y938D02*
X860D01*
X606Y944D02*
X608D01*
X606Y946D02*
X618D01*
X666Y958D02*
X698D01*
X674Y960D02*
X714D01*
X686Y962D02*
X734D01*
X840Y964D02*
X874D01*
X764D02*
X766D01*
X810Y966D02*
X860D01*
X708D02*
X792D01*
X846Y968D02*
X848D01*
X716D02*
X834D01*
X732Y970D02*
X766D01*
X742Y972D02*
X776D01*
X756Y974D02*
X766D01*
Y976D02*
X780D01*
X828Y982D02*
X852D01*
X910Y896D02*
X926D01*
X912Y898D02*
X928D01*
X912Y900D02*
X930D01*
X912Y902D02*
X930D01*
X912Y904D02*
X932D01*
X914Y906D02*
X934D01*
X914Y908D02*
X934D01*
X914Y910D02*
X936D01*
X914Y912D02*
X938D01*
X916Y914D02*
X940D01*
X914Y916D02*
X940D01*
X916Y918D02*
X942D01*
X914Y920D02*
X942D01*
X916Y922D02*
X944D01*
X914Y924D02*
X946D01*
X914Y926D02*
X948D01*
X914Y928D02*
X948D01*
X914Y930D02*
X950D01*
X912Y932D02*
X950D01*
X912Y934D02*
X952D01*
X910Y936D02*
X954D01*
X910Y938D02*
X954D01*
X906Y942D02*
X958D01*
X904Y944D02*
X958D01*
X902Y946D02*
X960D01*
X898Y948D02*
X960D01*
X896Y950D02*
X962D01*
X892Y952D02*
X962D01*
X888Y954D02*
X964D01*
X904Y956D02*
X964D01*
X900Y958D02*
X966D01*
X904Y960D02*
X966D01*
X908Y962D02*
X966D01*
X906Y964D02*
X968D01*
X912Y966D02*
X968D01*
X906Y968D02*
X968D01*
X916Y970D02*
X970D01*
X920Y972D02*
X970D01*
X916Y974D02*
X970D01*
X922Y976D02*
X970D01*
X916Y978D02*
X970D01*
X920Y980D02*
X970D01*
X924Y982D02*
X968D01*
X922Y984D02*
X964D01*
X926Y986D02*
X956D01*
X916Y988D02*
X944D01*
X670Y860D02*
X698D01*
X736Y940D02*
X812D01*
X670D02*
X716D01*
X908D02*
X956D01*
X846Y880D02*
X890D01*
X846Y882D02*
X892D01*
X846Y884D02*
X892D01*
X846Y886D02*
X892D01*
X844Y888D02*
X892D01*
X844Y890D02*
X892D01*
X844Y892D02*
X894D01*
X790Y894D02*
X894D01*
X790Y896D02*
X894D01*
X790Y898D02*
X894D01*
X790Y900D02*
X894D01*
X788Y902D02*
X896D01*
X788Y904D02*
X896D01*
X788Y906D02*
X896D01*
X786Y908D02*
X896D01*
X786Y910D02*
X896D01*
X820Y912D02*
X896D01*
X820Y914D02*
X898D01*
X820Y916D02*
X898D01*
X822Y918D02*
X898D01*
X853Y860D02*
X885D01*
X799D02*
X835D01*
X798Y862D02*
X835Y862D01*
X852Y862D02*
X886D01*
X851Y864D02*
X887D01*
X752Y862D02*
X756D01*
X780D02*
X782D01*
X885Y856D02*
X894D01*
D53*
X1200Y1725D02*
D03*
M02*
