%FSLAX23Y23*%
%MOIN*%
G70*
G01*
G75*
G04 Layer_Physical_Order=2*
G04 Layer_Color=16711680*
%ADD10C,0.030*%
%ADD11C,0.020*%
%ADD12C,0.012*%
%ADD13C,0.010*%
%ADD14R,0.024X0.047*%
%ADD15R,0.039X0.051*%
%ADD16R,0.110X0.115*%
%ADD17R,0.098X0.091*%
%ADD18R,0.060X0.074*%
%ADD19R,0.080X0.080*%
%ADD20R,0.074X0.060*%
%ADD21R,0.051X0.039*%
%ADD22O,0.053X0.022*%
%ADD23O,0.022X0.053*%
%ADD24R,0.022X0.053*%
%ADD25R,0.026X0.079*%
%ADD26R,0.106X0.033*%
%ADD27R,0.110X0.070*%
%ADD28R,0.050X0.050*%
%ADD29R,0.050X0.050*%
%ADD30R,0.100X0.060*%
%ADD31C,0.015*%
%ADD32C,0.008*%
%ADD33C,0.157*%
%ADD34C,0.100*%
%ADD35P,0.108X8X112.5*%
%ADD36C,0.060*%
%ADD37C,0.089*%
%ADD38P,0.076X8X202.5*%
%ADD39R,0.062X0.070*%
%ADD40O,0.062X0.070*%
%ADD41C,0.079*%
%ADD42C,0.050*%
G36*
X1726Y1539D02*
X1707Y1531D01*
X1682Y1517D01*
X1658Y1500D01*
X1636Y1480D01*
X1616Y1458D01*
X1599Y1434D01*
X1585Y1409D01*
X1574Y1382D01*
X1566Y1353D01*
X1561Y1325D01*
X1559Y1295D01*
X1561Y1266D01*
X1566Y1237D01*
X1574Y1209D01*
X1585Y1182D01*
X1599Y1156D01*
X1616Y1132D01*
X1636Y1110D01*
X1658Y1091D01*
X1682Y1074D01*
X1707Y1060D01*
X1726Y1052D01*
Y25D01*
X1659D01*
X1658Y30D01*
X1664Y31D01*
X1677Y35D01*
X1689Y42D01*
X1700Y50D01*
X1708Y61D01*
X1715Y73D01*
X1719Y86D01*
X1720Y100D01*
X1719Y114D01*
X1715Y127D01*
X1708Y139D01*
X1700Y150D01*
X1689Y158D01*
X1677Y165D01*
X1664Y169D01*
X1650Y170D01*
X1636Y169D01*
X1623Y165D01*
X1611Y158D01*
X1600Y150D01*
X1592Y139D01*
X1585Y127D01*
X1581Y114D01*
X1580Y100D01*
X1581Y86D01*
X1585Y73D01*
X1592Y61D01*
X1600Y50D01*
X1611Y42D01*
X1623Y35D01*
X1636Y31D01*
X1642Y30D01*
X1641Y25D01*
X1459D01*
X1458Y30D01*
X1464Y31D01*
X1477Y35D01*
X1489Y42D01*
X1500Y50D01*
X1508Y61D01*
X1515Y73D01*
X1519Y86D01*
X1520Y100D01*
X1519Y114D01*
X1515Y127D01*
X1508Y139D01*
X1500Y150D01*
X1489Y158D01*
X1477Y165D01*
X1464Y169D01*
X1450Y170D01*
X1436Y169D01*
X1423Y165D01*
X1411Y158D01*
X1400Y150D01*
X1392Y139D01*
X1385Y127D01*
X1381Y114D01*
X1380Y100D01*
X1381Y86D01*
X1385Y73D01*
X1392Y61D01*
X1400Y50D01*
X1411Y42D01*
X1423Y35D01*
X1436Y31D01*
X1442Y30D01*
X1441Y25D01*
X1259D01*
X1258Y30D01*
X1264Y31D01*
X1277Y35D01*
X1289Y42D01*
X1300Y50D01*
X1308Y61D01*
X1315Y73D01*
X1319Y86D01*
X1320Y100D01*
X1319Y114D01*
X1315Y127D01*
X1308Y139D01*
X1300Y150D01*
X1289Y158D01*
X1277Y165D01*
X1264Y169D01*
X1250Y170D01*
X1236Y169D01*
X1223Y165D01*
X1211Y158D01*
X1200Y150D01*
X1192Y139D01*
X1185Y127D01*
X1181Y114D01*
X1180Y100D01*
X1181Y86D01*
X1185Y73D01*
X1192Y61D01*
X1200Y50D01*
X1211Y42D01*
X1223Y35D01*
X1236Y31D01*
X1242Y30D01*
X1241Y25D01*
X137D01*
X135Y30D01*
X145Y40D01*
Y110D01*
X110Y145D01*
X40D01*
X30Y135D01*
X25Y137D01*
Y538D01*
X30Y540D01*
X40Y530D01*
X110D01*
X145Y565D01*
Y635D01*
X110Y670D01*
X40D01*
X30Y660D01*
X25Y662D01*
Y1052D01*
X45Y1060D01*
X70Y1074D01*
X94Y1091D01*
X116Y1110D01*
X136Y1132D01*
X153Y1156D01*
X167Y1182D01*
X178Y1209D01*
X186Y1237D01*
X191Y1266D01*
X193Y1295D01*
X191Y1325D01*
X186Y1353D01*
X178Y1382D01*
X167Y1409D01*
X153Y1434D01*
X136Y1458D01*
X116Y1480D01*
X105Y1490D01*
X107Y1495D01*
X153D01*
X175Y1518D01*
X198Y1495D01*
X252D01*
X280Y1523D01*
Y1577D01*
X257Y1600D01*
X280Y1622D01*
Y1678D01*
X257Y1700D01*
X280Y1722D01*
Y1778D01*
X252Y1805D01*
X198D01*
X175Y1783D01*
X153Y1805D01*
X131D01*
Y1750D01*
X125D01*
Y1744D01*
X70D01*
Y1722D01*
X93Y1700D01*
X70Y1678D01*
Y1622D01*
X93Y1600D01*
X70Y1577D01*
Y1523D01*
X70Y1523D01*
X70D01*
X66Y1519D01*
X45Y1531D01*
X25Y1539D01*
Y2234D01*
X1726D01*
Y1539D01*
D02*
G37*
%LPC*%
G36*
X104Y873D02*
X91Y872D01*
X77Y868D01*
X65Y862D01*
X55Y853D01*
X46Y842D01*
X39Y830D01*
X35Y817D01*
X34Y803D01*
X35Y789D01*
X39Y776D01*
X46Y764D01*
X55Y753D01*
X65Y745D01*
X77Y738D01*
X91Y734D01*
X104Y733D01*
X118Y734D01*
X131Y738D01*
X143Y745D01*
X154Y753D01*
X163Y764D01*
X169Y776D01*
X173Y789D01*
X175Y803D01*
X173Y817D01*
X169Y830D01*
X163Y842D01*
X154Y853D01*
X143Y862D01*
X131Y868D01*
X118Y872D01*
X104Y873D01*
D02*
G37*
G36*
X1641Y797D02*
X1577D01*
X1578Y789D01*
X1582Y776D01*
X1588Y764D01*
X1597Y753D01*
X1608Y745D01*
X1620Y738D01*
X1633Y734D01*
X1641Y733D01*
Y797D01*
D02*
G37*
G36*
X350Y755D02*
X343Y753D01*
X335Y750D01*
X329Y746D01*
X324Y739D01*
X321Y732D01*
X320Y724D01*
X321Y717D01*
X324Y709D01*
X329Y703D01*
X335Y698D01*
X343Y695D01*
X350Y694D01*
X358Y695D01*
X365Y698D01*
X372Y703D01*
X376Y709D01*
X379Y717D01*
X380Y724D01*
X379Y732D01*
X376Y739D01*
X372Y746D01*
X365Y750D01*
X358Y753D01*
X350Y755D01*
D02*
G37*
G36*
X296Y535D02*
Y496D01*
X335D01*
X334Y502D01*
X329Y513D01*
X322Y522D01*
X313Y529D01*
X302Y534D01*
X296Y535D01*
D02*
G37*
G36*
X1401Y755D02*
X1393Y753D01*
X1386Y750D01*
X1380Y746D01*
X1375Y739D01*
X1372Y732D01*
X1371Y724D01*
X1372Y717D01*
X1375Y709D01*
X1380Y703D01*
X1386Y698D01*
X1393Y695D01*
X1401Y694D01*
X1409Y695D01*
X1416Y698D01*
X1422Y703D01*
X1427Y709D01*
X1430Y717D01*
X1431Y724D01*
X1430Y732D01*
X1427Y739D01*
X1422Y746D01*
X1416Y750D01*
X1409Y753D01*
X1401Y755D01*
D02*
G37*
G36*
X1653Y873D02*
Y809D01*
X1717D01*
X1716Y817D01*
X1712Y830D01*
X1705Y842D01*
X1697Y853D01*
X1686Y862D01*
X1674Y868D01*
X1661Y872D01*
X1653Y873D01*
D02*
G37*
G36*
X1161Y873D02*
Y809D01*
X1224D01*
X1224Y817D01*
X1220Y830D01*
X1213Y842D01*
X1204Y853D01*
X1194Y862D01*
X1182Y868D01*
X1168Y872D01*
X1161Y873D01*
D02*
G37*
G36*
X104Y1070D02*
X91Y1069D01*
X77Y1065D01*
X65Y1058D01*
X55Y1050D01*
X46Y1039D01*
X39Y1027D01*
X35Y1014D01*
X34Y1000D01*
X35Y986D01*
X39Y973D01*
X46Y961D01*
X55Y950D01*
X65Y942D01*
X77Y935D01*
X91Y931D01*
X104Y930D01*
X118Y931D01*
X131Y935D01*
X143Y942D01*
X154Y950D01*
X163Y961D01*
X169Y973D01*
X173Y986D01*
X175Y1000D01*
X173Y1014D01*
X169Y1027D01*
X163Y1039D01*
X154Y1050D01*
X143Y1058D01*
X131Y1065D01*
X118Y1069D01*
X104Y1070D01*
D02*
G37*
G36*
X1717Y797D02*
X1653D01*
Y733D01*
X1661Y734D01*
X1674Y738D01*
X1686Y745D01*
X1697Y753D01*
X1705Y764D01*
X1712Y776D01*
X1716Y789D01*
X1717Y797D01*
D02*
G37*
G36*
X1224Y797D02*
X1161D01*
Y733D01*
X1168Y734D01*
X1182Y738D01*
X1194Y745D01*
X1204Y753D01*
X1213Y764D01*
X1220Y776D01*
X1224Y789D01*
X1224Y797D01*
D02*
G37*
G36*
X1641Y873D02*
X1633Y872D01*
X1620Y868D01*
X1608Y862D01*
X1597Y853D01*
X1588Y842D01*
X1582Y830D01*
X1578Y817D01*
X1577Y809D01*
X1641D01*
Y873D01*
D02*
G37*
G36*
X770Y269D02*
X731D01*
Y230D01*
X737Y231D01*
X748Y236D01*
X757Y243D01*
X764Y252D01*
X769Y263D01*
X770Y269D01*
D02*
G37*
G36*
X1369Y270D02*
X1363Y269D01*
X1352Y264D01*
X1343Y257D01*
X1336Y248D01*
X1331Y237D01*
X1330Y231D01*
X1369D01*
Y270D01*
D02*
G37*
G36*
X1381D02*
Y231D01*
X1420D01*
X1419Y237D01*
X1414Y248D01*
X1407Y257D01*
X1398Y264D01*
X1387Y269D01*
X1381Y270D01*
D02*
G37*
G36*
X1369Y219D02*
X1330D01*
X1331Y213D01*
X1336Y202D01*
X1343Y193D01*
X1352Y186D01*
X1363Y181D01*
X1369Y180D01*
Y219D01*
D02*
G37*
G36*
X1420D02*
X1381D01*
Y180D01*
X1387Y181D01*
X1398Y186D01*
X1407Y193D01*
X1414Y202D01*
X1419Y213D01*
X1420Y219D01*
D02*
G37*
G36*
X719Y269D02*
X680D01*
X681Y263D01*
X686Y252D01*
X693Y243D01*
X702Y236D01*
X713Y231D01*
X719Y230D01*
Y269D01*
D02*
G37*
G36*
X335Y484D02*
X296D01*
Y445D01*
X302Y446D01*
X313Y451D01*
X322Y458D01*
X329Y467D01*
X334Y478D01*
X335Y484D01*
D02*
G37*
G36*
X876Y667D02*
X857Y665D01*
X838Y659D01*
X821Y650D01*
X806Y638D01*
X794Y623D01*
X785Y606D01*
X779Y587D01*
X777Y568D01*
X779Y548D01*
X785Y530D01*
X794Y513D01*
X806Y498D01*
X821Y485D01*
X838Y476D01*
X857Y471D01*
X876Y469D01*
X895Y471D01*
X914Y476D01*
X931Y485D01*
X946Y498D01*
X958Y513D01*
X967Y530D01*
X973Y548D01*
X975Y568D01*
X973Y587D01*
X967Y606D01*
X958Y623D01*
X946Y638D01*
X931Y650D01*
X914Y659D01*
X895Y665D01*
X876Y667D01*
D02*
G37*
G36*
X284Y535D02*
X278Y534D01*
X267Y529D01*
X258Y522D01*
X251Y513D01*
X246Y502D01*
X245Y496D01*
X284D01*
Y535D01*
D02*
G37*
G36*
X719Y320D02*
X713Y319D01*
X702Y314D01*
X693Y307D01*
X686Y298D01*
X681Y287D01*
X680Y281D01*
X719D01*
Y320D01*
D02*
G37*
G36*
X731D02*
Y281D01*
X770D01*
X769Y287D01*
X764Y298D01*
X757Y307D01*
X748Y314D01*
X737Y319D01*
X731Y320D01*
D02*
G37*
G36*
X284Y484D02*
X245D01*
X246Y478D01*
X251Y467D01*
X258Y458D01*
X267Y451D01*
X278Y446D01*
X284Y445D01*
Y484D01*
D02*
G37*
G36*
X1647Y1070D02*
X1633Y1069D01*
X1620Y1065D01*
X1608Y1058D01*
X1597Y1050D01*
X1588Y1039D01*
X1582Y1027D01*
X1578Y1014D01*
X1577Y1000D01*
X1578Y986D01*
X1582Y973D01*
X1588Y961D01*
X1597Y950D01*
X1608Y942D01*
X1620Y935D01*
X1633Y931D01*
X1647Y930D01*
X1661Y931D01*
X1674Y935D01*
X1686Y942D01*
X1697Y950D01*
X1705Y961D01*
X1712Y973D01*
X1716Y986D01*
X1717Y1000D01*
X1716Y1014D01*
X1712Y1027D01*
X1705Y1039D01*
X1697Y1050D01*
X1686Y1058D01*
X1674Y1065D01*
X1661Y1069D01*
X1647Y1070D01*
D02*
G37*
G36*
X1576Y1805D02*
Y1766D01*
X1615D01*
X1614Y1772D01*
X1609Y1783D01*
X1602Y1792D01*
X1593Y1799D01*
X1582Y1804D01*
X1576Y1805D01*
D02*
G37*
G36*
X463Y2158D02*
X450Y2156D01*
X438Y2153D01*
X427Y2147D01*
X417Y2139D01*
X409Y2129D01*
X403Y2118D01*
X399Y2106D01*
X398Y2093D01*
X399Y2080D01*
X403Y2068D01*
X409Y2057D01*
X417Y2047D01*
X427Y2039D01*
X438Y2033D01*
X450Y2030D01*
X463Y2028D01*
X475Y2030D01*
X487Y2033D01*
X498Y2039D01*
X508Y2047D01*
X516Y2057D01*
X522Y2068D01*
X526Y2080D01*
X527Y2093D01*
X526Y2106D01*
X522Y2118D01*
X516Y2129D01*
X508Y2139D01*
X498Y2147D01*
X487Y2153D01*
X475Y2156D01*
X463Y2158D01*
D02*
G37*
G36*
X1564Y1805D02*
X1558Y1804D01*
X1547Y1799D01*
X1538Y1792D01*
X1531Y1783D01*
X1526Y1772D01*
X1525Y1766D01*
X1564D01*
Y1805D01*
D02*
G37*
G36*
X1615Y1754D02*
X1576D01*
Y1715D01*
X1582Y1716D01*
X1593Y1721D01*
X1602Y1728D01*
X1609Y1737D01*
X1614Y1748D01*
X1615Y1754D01*
D02*
G37*
G36*
X119Y1805D02*
X97D01*
X70Y1778D01*
Y1756D01*
X119D01*
Y1805D01*
D02*
G37*
G36*
X1289Y2158D02*
X1277Y2156D01*
X1265Y2153D01*
X1253Y2147D01*
X1244Y2139D01*
X1236Y2129D01*
X1230Y2118D01*
X1226Y2106D01*
X1225Y2093D01*
X1226Y2080D01*
X1230Y2068D01*
X1236Y2057D01*
X1244Y2047D01*
X1253Y2039D01*
X1265Y2033D01*
X1277Y2030D01*
X1289Y2028D01*
X1302Y2030D01*
X1314Y2033D01*
X1325Y2039D01*
X1335Y2047D01*
X1343Y2057D01*
X1349Y2068D01*
X1353Y2080D01*
X1354Y2093D01*
X1353Y2106D01*
X1349Y2118D01*
X1343Y2129D01*
X1335Y2139D01*
X1325Y2147D01*
X1314Y2153D01*
X1302Y2156D01*
X1289Y2158D01*
D02*
G37*
G36*
X720Y2170D02*
X675D01*
Y2121D01*
X720D01*
Y2170D01*
D02*
G37*
G36*
X1026Y2170D02*
X1013Y2168D01*
X1000Y2163D01*
X990Y2155D01*
X981Y2144D01*
X978Y2137D01*
X973D01*
X971Y2144D01*
X962Y2155D01*
X952Y2163D01*
X939Y2168D01*
X926Y2170D01*
X913Y2168D01*
X900Y2163D01*
X890Y2155D01*
X881Y2144D01*
X878Y2137D01*
X873D01*
X871Y2144D01*
X862Y2155D01*
X852Y2163D01*
X839Y2168D01*
X826Y2170D01*
X813Y2168D01*
X800Y2163D01*
X790Y2155D01*
X782Y2145D01*
X777Y2146D01*
Y2170D01*
X732D01*
Y2115D01*
Y2060D01*
X777D01*
Y2083D01*
X782Y2085D01*
X790Y2074D01*
X800Y2066D01*
X813Y2061D01*
X826Y2059D01*
X839Y2061D01*
X852Y2066D01*
X862Y2074D01*
X871Y2085D01*
X873Y2092D01*
X878D01*
X881Y2085D01*
X890Y2074D01*
X900Y2066D01*
X913Y2061D01*
X926Y2059D01*
X939Y2061D01*
X952Y2066D01*
X962Y2074D01*
X971Y2085D01*
X973Y2092D01*
X978D01*
X981Y2085D01*
X990Y2074D01*
X1000Y2066D01*
X1013Y2061D01*
X1026Y2059D01*
X1039Y2061D01*
X1052Y2066D01*
X1062Y2074D01*
X1071Y2085D01*
X1076Y2097D01*
X1077Y2111D01*
Y2119D01*
X1076Y2132D01*
X1071Y2144D01*
X1062Y2155D01*
X1052Y2163D01*
X1039Y2168D01*
X1026Y2170D01*
D02*
G37*
G36*
X1589Y2204D02*
X1576Y2202D01*
X1563Y2197D01*
X1553Y2189D01*
X1545Y2179D01*
X1540Y2167D01*
X1538Y2154D01*
X1540Y2140D01*
X1545Y2128D01*
X1553Y2118D01*
X1563Y2110D01*
X1576Y2105D01*
X1589Y2103D01*
X1602Y2105D01*
X1614Y2110D01*
X1624Y2118D01*
X1632Y2128D01*
X1637Y2140D01*
X1639Y2154D01*
X1637Y2167D01*
X1632Y2179D01*
X1624Y2189D01*
X1614Y2197D01*
X1602Y2202D01*
X1589Y2204D01*
D02*
G37*
G36*
X720Y2109D02*
X675D01*
Y2060D01*
X720D01*
Y2109D01*
D02*
G37*
G36*
X163Y2204D02*
X150Y2202D01*
X138Y2197D01*
X128Y2189D01*
X120Y2179D01*
X115Y2167D01*
X113Y2154D01*
X115Y2140D01*
X120Y2128D01*
X128Y2118D01*
X138Y2110D01*
X150Y2105D01*
X163Y2103D01*
X176Y2105D01*
X189Y2110D01*
X199Y2118D01*
X207Y2128D01*
X212Y2140D01*
X214Y2154D01*
X212Y2167D01*
X207Y2179D01*
X199Y2189D01*
X189Y2197D01*
X176Y2202D01*
X163Y2204D01*
D02*
G37*
G36*
X1564Y1754D02*
X1525D01*
X1526Y1748D01*
X1531Y1737D01*
X1538Y1728D01*
X1547Y1721D01*
X1558Y1716D01*
X1564Y1715D01*
Y1754D01*
D02*
G37*
G36*
X1289Y1292D02*
X1277Y1290D01*
X1265Y1287D01*
X1253Y1281D01*
X1244Y1273D01*
X1236Y1263D01*
X1230Y1252D01*
X1226Y1240D01*
X1225Y1227D01*
X1226Y1214D01*
X1230Y1202D01*
X1236Y1191D01*
X1244Y1181D01*
X1253Y1173D01*
X1265Y1167D01*
X1277Y1164D01*
X1289Y1162D01*
X1302Y1164D01*
X1314Y1167D01*
X1325Y1173D01*
X1335Y1181D01*
X1343Y1191D01*
X1349Y1202D01*
X1353Y1214D01*
X1354Y1227D01*
X1353Y1240D01*
X1349Y1252D01*
X1343Y1263D01*
X1335Y1273D01*
X1325Y1281D01*
X1314Y1287D01*
X1302Y1290D01*
X1289Y1292D01*
D02*
G37*
G36*
X344Y1319D02*
X305D01*
X306Y1313D01*
X311Y1302D01*
X318Y1293D01*
X327Y1286D01*
X338Y1281D01*
X344Y1280D01*
Y1319D01*
D02*
G37*
G36*
X463Y1292D02*
X450Y1290D01*
X438Y1287D01*
X427Y1281D01*
X417Y1273D01*
X409Y1263D01*
X403Y1252D01*
X399Y1240D01*
X398Y1227D01*
X399Y1214D01*
X403Y1202D01*
X409Y1191D01*
X417Y1181D01*
X427Y1173D01*
X438Y1167D01*
X450Y1164D01*
X463Y1162D01*
X475Y1164D01*
X487Y1167D01*
X498Y1173D01*
X508Y1181D01*
X516Y1191D01*
X522Y1202D01*
X526Y1214D01*
X527Y1227D01*
X526Y1240D01*
X522Y1252D01*
X516Y1263D01*
X508Y1273D01*
X498Y1281D01*
X487Y1287D01*
X475Y1290D01*
X463Y1292D01*
D02*
G37*
G36*
X1401Y1109D02*
X1393Y1108D01*
X1386Y1105D01*
X1380Y1100D01*
X1375Y1094D01*
X1372Y1087D01*
X1371Y1079D01*
X1372Y1071D01*
X1375Y1064D01*
X1380Y1057D01*
X1386Y1053D01*
X1393Y1050D01*
X1401Y1049D01*
X1409Y1050D01*
X1416Y1053D01*
X1422Y1057D01*
X1427Y1064D01*
X1430Y1071D01*
X1431Y1079D01*
X1430Y1087D01*
X1427Y1094D01*
X1422Y1100D01*
X1416Y1105D01*
X1409Y1108D01*
X1401Y1109D01*
D02*
G37*
G36*
X350Y1109D02*
X343Y1108D01*
X335Y1105D01*
X329Y1100D01*
X324Y1094D01*
X321Y1087D01*
X320Y1079D01*
X321Y1071D01*
X324Y1064D01*
X329Y1057D01*
X335Y1053D01*
X343Y1050D01*
X350Y1049D01*
X358Y1050D01*
X365Y1053D01*
X372Y1057D01*
X376Y1064D01*
X379Y1071D01*
X380Y1079D01*
X379Y1087D01*
X376Y1094D01*
X372Y1100D01*
X365Y1105D01*
X358Y1108D01*
X350Y1109D01*
D02*
G37*
G36*
X395Y1319D02*
X356D01*
Y1280D01*
X362Y1281D01*
X373Y1286D01*
X382Y1293D01*
X389Y1302D01*
X394Y1313D01*
X395Y1319D01*
D02*
G37*
G36*
X594Y1420D02*
X588Y1419D01*
X577Y1414D01*
X568Y1407D01*
X561Y1398D01*
X556Y1387D01*
X555Y1381D01*
X594D01*
Y1420D01*
D02*
G37*
G36*
X850Y1870D02*
X838Y1869D01*
X827Y1864D01*
X818Y1857D01*
X811Y1848D01*
X806Y1837D01*
X805Y1825D01*
X805Y1824D01*
X803Y1821D01*
X803Y1821D01*
X803Y1821D01*
X654Y1671D01*
X649Y1665D01*
X648Y1663D01*
X646Y1658D01*
X645Y1650D01*
Y1397D01*
X640Y1396D01*
X639Y1398D01*
X632Y1407D01*
X623Y1414D01*
X612Y1419D01*
X606Y1420D01*
Y1375D01*
Y1330D01*
X612Y1331D01*
X623Y1336D01*
X632Y1343D01*
X639Y1352D01*
X640Y1354D01*
X645Y1353D01*
Y1086D01*
X645D01*
X645Y1086D01*
X643Y1082D01*
X643Y1082D01*
X636Y1073D01*
X632Y1064D01*
X628Y1063D01*
X623Y1065D01*
X610Y1069D01*
X596Y1070D01*
X583Y1069D01*
X570Y1065D01*
X557Y1058D01*
X547Y1050D01*
X538Y1039D01*
X531Y1027D01*
X527Y1014D01*
X526Y1000D01*
X527Y986D01*
X531Y973D01*
X538Y961D01*
X547Y950D01*
X557Y942D01*
X569Y935D01*
X568Y931D01*
X568Y930D01*
X386D01*
Y930D01*
X386Y930D01*
X382Y932D01*
X382Y932D01*
X373Y939D01*
X362Y944D01*
X350Y945D01*
X338Y944D01*
X327Y939D01*
X318Y932D01*
X311Y923D01*
X306Y912D01*
X305Y900D01*
X306Y888D01*
X311Y877D01*
X318Y868D01*
X327Y861D01*
X338Y856D01*
X350Y855D01*
X362Y856D01*
X373Y861D01*
X382Y868D01*
X382Y868D01*
X386Y870D01*
X386Y870D01*
Y870D01*
X562D01*
X563Y865D01*
X557Y862D01*
X547Y853D01*
X538Y842D01*
X531Y830D01*
X527Y817D01*
X526Y803D01*
X527Y789D01*
X531Y776D01*
X538Y764D01*
X547Y753D01*
X557Y745D01*
X570Y738D01*
X583Y734D01*
X596Y733D01*
X610Y734D01*
X623Y738D01*
X636Y745D01*
X646Y753D01*
X655Y764D01*
X661Y776D01*
X665Y789D01*
X667Y803D01*
X665Y817D01*
X661Y830D01*
X655Y842D01*
X646Y853D01*
X636Y862D01*
X623Y868D01*
X624Y870D01*
X762D01*
X854Y779D01*
X854Y779D01*
X856Y777D01*
X860Y774D01*
X867Y771D01*
X875Y770D01*
X875Y770D01*
X939D01*
Y770D01*
X939Y770D01*
X943Y768D01*
X943Y768D01*
X952Y761D01*
X963Y756D01*
X975Y755D01*
X987Y756D01*
X998Y761D01*
X1007Y768D01*
X1010Y772D01*
X1015Y770D01*
Y465D01*
X685Y135D01*
X303D01*
X298Y139D01*
X287Y144D01*
X275Y145D01*
X263Y144D01*
X252Y139D01*
X243Y132D01*
X236Y123D01*
X231Y112D01*
X230Y100D01*
X231Y88D01*
X236Y77D01*
X243Y68D01*
X252Y61D01*
X263Y56D01*
X275Y55D01*
X287Y56D01*
X298Y61D01*
X303Y65D01*
X700D01*
X709Y66D01*
X718Y69D01*
X725Y75D01*
Y75D01*
X725D01*
D01*
D01*
D01*
D01*
D01*
D01*
X725D01*
D01*
X725D01*
Y75D01*
D01*
D01*
D01*
D01*
Y75D01*
D01*
D01*
D01*
D01*
D01*
D01*
Y75D01*
D01*
D01*
X725D01*
D01*
D01*
D01*
X1075Y425D01*
X1081Y432D01*
X1084Y441D01*
X1085Y450D01*
D01*
D01*
D01*
D01*
D01*
X1085D01*
D01*
D01*
D01*
D01*
Y450D01*
X1085D01*
D01*
Y450D01*
D01*
D01*
D01*
D01*
D01*
D01*
D01*
D01*
D01*
D01*
D01*
D01*
Y450D01*
D01*
X1085D01*
D01*
D01*
D01*
D01*
X1085Y450D01*
Y774D01*
X1090Y775D01*
X1096Y764D01*
X1105Y753D01*
X1116Y745D01*
X1128Y738D01*
X1141Y734D01*
X1149Y733D01*
Y803D01*
Y873D01*
X1141Y872D01*
X1128Y868D01*
X1116Y862D01*
X1105Y853D01*
X1096Y842D01*
X1090Y831D01*
X1085Y832D01*
Y971D01*
X1090Y972D01*
X1096Y961D01*
X1105Y950D01*
X1116Y942D01*
X1128Y935D01*
X1141Y931D01*
X1155Y930D01*
X1168Y931D01*
X1182Y935D01*
X1194Y942D01*
X1204Y950D01*
X1213Y961D01*
X1220Y973D01*
X1224Y986D01*
X1225Y1000D01*
X1224Y1014D01*
X1220Y1027D01*
X1213Y1039D01*
X1204Y1050D01*
X1194Y1058D01*
X1182Y1065D01*
X1168Y1069D01*
X1155Y1070D01*
X1141Y1069D01*
X1128Y1065D01*
X1116Y1058D01*
X1105Y1050D01*
X1096Y1039D01*
X1090Y1028D01*
X1085Y1029D01*
Y1472D01*
X1089Y1477D01*
X1094Y1488D01*
X1095Y1500D01*
X1094Y1512D01*
X1089Y1523D01*
X1082Y1532D01*
X1073Y1539D01*
X1062Y1544D01*
X1050Y1545D01*
X1038Y1544D01*
X1027Y1539D01*
X1018Y1532D01*
X1011Y1523D01*
X1006Y1512D01*
X1005Y1500D01*
X1006Y1488D01*
X1011Y1477D01*
X1015Y1472D01*
Y830D01*
X1010Y828D01*
X1007Y832D01*
X998Y839D01*
X987Y844D01*
X975Y845D01*
X963Y844D01*
X952Y839D01*
X943Y832D01*
X943Y832D01*
X939Y830D01*
X939Y830D01*
Y830D01*
X888D01*
X796Y921D01*
X790Y926D01*
X788Y927D01*
X783Y929D01*
X775Y930D01*
X625D01*
X625Y931D01*
X624Y935D01*
X636Y942D01*
X646Y950D01*
X655Y961D01*
X661Y973D01*
X665Y986D01*
X667Y1000D01*
X667Y1002D01*
X670Y1005D01*
X675Y1005D01*
X687Y1006D01*
X698Y1011D01*
X707Y1018D01*
X714Y1027D01*
X719Y1038D01*
X720Y1050D01*
X719Y1062D01*
X714Y1073D01*
X707Y1082D01*
X707Y1082D01*
X705Y1086D01*
X705Y1086D01*
X705D01*
Y1637D01*
X803Y1735D01*
X808Y1734D01*
X811Y1727D01*
X818Y1718D01*
X818Y1718D01*
X820Y1714D01*
X820Y1714D01*
X820D01*
Y1650D01*
X821Y1642D01*
X823Y1637D01*
X824Y1635D01*
X829Y1629D01*
X830Y1627D01*
X830Y1625D01*
X831Y1613D01*
X836Y1602D01*
X843Y1593D01*
X852Y1586D01*
X863Y1581D01*
X875Y1580D01*
X887Y1581D01*
X898Y1586D01*
X907Y1593D01*
X914Y1602D01*
X919Y1613D01*
X920Y1625D01*
X919Y1637D01*
X914Y1648D01*
X907Y1657D01*
X898Y1664D01*
X887Y1669D01*
X880Y1670D01*
Y1714D01*
X880D01*
X880Y1714D01*
X882Y1718D01*
X882Y1718D01*
X889Y1727D01*
X894Y1738D01*
X895Y1750D01*
X894Y1762D01*
X889Y1773D01*
X882Y1782D01*
X878Y1785D01*
Y1790D01*
X882Y1793D01*
X889Y1802D01*
X894Y1813D01*
X895Y1825D01*
X894Y1837D01*
X889Y1848D01*
X882Y1857D01*
X873Y1864D01*
X862Y1869D01*
X850Y1870D01*
D02*
G37*
G36*
X356Y1370D02*
Y1331D01*
X395D01*
X394Y1337D01*
X389Y1348D01*
X382Y1357D01*
X373Y1364D01*
X362Y1369D01*
X356Y1370D01*
D02*
G37*
G36*
X594Y1369D02*
X555D01*
X556Y1363D01*
X561Y1352D01*
X568Y1343D01*
X577Y1336D01*
X588Y1331D01*
X594Y1330D01*
Y1369D01*
D02*
G37*
G36*
X344Y1370D02*
X338Y1369D01*
X327Y1364D01*
X318Y1357D01*
X311Y1348D01*
X306Y1337D01*
X305Y1331D01*
X344D01*
Y1370D01*
D02*
G37*
%LPD*%
D10*
X1622Y778D02*
G03*
X1562Y803I-60J-60D01*
G01*
X1562D02*
G03*
X1622Y828I0J84D01*
G01*
X1179Y828D02*
G03*
X1239Y803I60J60D01*
G01*
D02*
G03*
X1179Y778I0J-84D01*
G01*
X1500Y803D02*
X1647D01*
X1155D02*
X1500D01*
Y1760D01*
Y275D02*
Y803D01*
X1647D02*
X1647Y803D01*
X1375Y225D02*
X1450D01*
X1500Y275D01*
Y1760D02*
X1570D01*
X1115D02*
X1500D01*
X726Y1900D02*
X975D01*
X400D02*
X726D01*
X350Y1325D02*
Y1850D01*
X975Y1900D02*
X1115Y1760D01*
X350Y1850D02*
X400Y1900D01*
X275Y100D02*
X700D01*
X1050Y450D02*
Y1500D01*
X700Y100D02*
X1050Y450D01*
D11*
X279Y501D02*
G03*
X290Y526I-26J26D01*
G01*
D02*
G03*
X301Y501I36J0D01*
G01*
Y479D02*
G03*
X290Y454I26J-26D01*
G01*
D02*
G03*
X279Y479I-36J0D01*
G01*
X361Y1314D02*
G03*
X350Y1289I26J-26D01*
G01*
D02*
G03*
X339Y1314I-36J0D01*
G01*
X361Y1336D02*
G03*
X386Y1325I26J26D01*
G01*
D02*
G03*
X361Y1314I0J-36D01*
G01*
X850Y1810D02*
G03*
X824Y1799I0J-36D01*
G01*
D02*
G03*
X835Y1825I-26J26D01*
G01*
X589Y1364D02*
G03*
X564Y1375I-26J-26D01*
G01*
D02*
G03*
X589Y1386I0J36D01*
G01*
X714Y264D02*
G03*
X689Y275I-26J-26D01*
G01*
D02*
G03*
X714Y286I0J36D01*
G01*
X964Y789D02*
G03*
X939Y800I-26J-26D01*
G01*
D02*
G03*
X964Y811I0J36D01*
G01*
X664Y1061D02*
G03*
X675Y1086I-26J26D01*
G01*
D02*
G03*
X686Y1061I36J0D01*
G01*
X361Y911D02*
G03*
X386Y900I26J26D01*
G01*
D02*
G03*
X361Y889I0J-36D01*
G01*
X861Y1739D02*
G03*
X850Y1714I26J-26D01*
G01*
D02*
G03*
X839Y1739I-36J0D01*
G01*
X741Y2096D02*
G03*
X726Y2060I36J-36D01*
G01*
D02*
G03*
X711Y2096I-51J0D01*
G01*
X107Y1768D02*
G03*
X125Y1810I-43J43D01*
G01*
D02*
G03*
X143Y1768I60J0D01*
G01*
X290Y490D02*
Y610D01*
Y410D02*
Y490D01*
X350Y1250D02*
Y1325D01*
X250Y1150D02*
X350Y1250D01*
X250Y650D02*
Y1150D01*
Y650D02*
X290Y610D01*
Y410D02*
X425Y275D01*
X725D01*
X150Y1850D02*
X350D01*
X125Y1825D02*
X150Y1850D01*
X125Y1750D02*
Y1825D01*
X726Y1900D02*
Y2115D01*
X350Y1325D02*
X450D01*
X500Y1375D01*
X600D01*
X850Y1650D02*
X875Y1625D01*
X850Y1650D02*
Y1750D01*
X675Y1650D02*
X850Y1825D01*
X875Y800D02*
X975D01*
X675Y1050D02*
Y1650D01*
X775Y900D02*
X875Y800D01*
X350Y900D02*
X775D01*
D33*
X876Y568D02*
D03*
D34*
X1250Y100D02*
D03*
X1450D02*
D03*
X1650D02*
D03*
X1647Y1000D02*
D03*
X104D02*
D03*
X1155Y803D02*
D03*
X104Y803D02*
D03*
X596D02*
D03*
Y1000D02*
D03*
X1155Y1000D02*
D03*
X1647Y803D02*
D03*
D35*
X75Y600D02*
D03*
Y75D02*
D03*
D36*
X1589Y2154D02*
D03*
X163D02*
D03*
D37*
X463Y2093D02*
D03*
X1289D02*
D03*
Y1227D02*
D03*
X463D02*
D03*
D38*
X225Y1550D02*
D03*
X125D02*
D03*
X225Y1650D02*
D03*
X125D02*
D03*
Y1750D02*
D03*
X225D02*
D03*
D39*
X726Y2115D02*
D03*
D40*
X826D02*
D03*
X926D02*
D03*
X1026D02*
D03*
D41*
X1750Y1300D02*
D03*
X0D02*
D03*
D42*
X1570Y1760D02*
D03*
X875Y1625D02*
D03*
X850Y1750D02*
D03*
X275Y100D02*
D03*
X350Y900D02*
D03*
X1050Y1500D02*
D03*
X675Y1050D02*
D03*
X975Y800D02*
D03*
X1375Y225D02*
D03*
X725Y275D02*
D03*
X600Y1375D02*
D03*
X850Y1825D02*
D03*
X350Y1325D02*
D03*
X290Y490D02*
D03*
M02*
